<svg width="473" height="490" viewBox="0 0 473 490" fill="none" xmlns="http://www.w3.org/2000/svg">
<path d="M104.06 417.48C179.835 454.887 302.625 454.887 378.4 417.48C454.175 380.073 454.08 319.48 378.4 282.073C302.72 244.667 179.872 244.677 104.136 282.073C28.3989 319.47 28.38 380.093 104.06 417.48Z" fill="#EBEBEB"/>
<path d="M348.204 139.454L351.685 136.681V128.743C351.685 122.461 356.519 115.16 361.779 112.014C367.039 108.868 371.305 111.416 371.305 117.708V118.854C372.411 116.994 373.92 115.427 375.713 114.278C379.497 112.014 382.572 113.847 382.572 118.374V118.903L389.534 114.738C392.022 113.249 394.047 114.454 394.047 117.433C393.961 119.055 393.508 120.633 392.724 122.039C391.94 123.446 390.847 124.641 389.534 125.528L348.204 150.244C345.716 151.733 343.691 150.528 343.691 147.549C343.777 145.927 344.23 144.349 345.014 142.943C345.798 141.537 346.891 140.341 348.204 139.454Z" fill="#EBEBEB"/>
<path d="M112.054 68.6001C111.975 67.0865 111.552 65.6136 110.821 64.3008C110.089 62.988 109.07 61.8723 107.844 61.0443L104.41 58.9863C103.106 58.3002 101.663 57.9426 100.2 57.9426C98.7374 57.9426 97.2951 58.3002 95.9906 58.9863L68.8309 75.2249C67.5375 76.0669 66.4805 77.2463 65.7659 78.6451C65.1506 79.7564 64.7641 80.9876 64.6307 82.2613C64.6307 82.4377 64.6307 82.6141 64.6307 82.7905V115.268C64.7108 116.782 65.1347 118.256 65.8678 119.568C66.6009 120.881 67.6226 121.996 68.8499 122.823L72.2744 124.881L72.7095 125.117L72.8704 125.185L73.1636 125.313L73.3907 125.401L73.6366 125.489L73.911 125.567L74.1191 125.626L74.4407 125.705H74.6015L74.9894 125.773H75.0651C77.0045 126.103 78.9947 125.776 80.7411 124.842L107.844 108.643C109.071 107.814 110.093 106.697 110.826 105.382C111.559 104.068 111.983 102.593 112.063 101.077L112.054 68.6001Z" fill="#9621B8" fill-opacity="0.58"/>
<path opacity="0.4" d="M77.7044 85.5835C77.218 86.418 76.8546 87.323 76.626 88.2687C77.1907 85.8193 78.644 83.6891 80.6843 82.3201L107.844 66.0815C110.171 64.6899 112.063 65.8169 112.063 68.6001C111.983 67.0856 111.559 65.6122 110.826 64.2993C110.093 62.9864 109.071 61.8712 107.844 61.0443L104.41 58.9863C103.106 58.3002 101.663 57.9426 100.2 57.9426C98.7374 57.9426 97.2951 58.3002 95.9906 58.9863L68.831 75.2249C67.5375 76.0669 66.4805 77.2463 65.7659 78.6451L65.8511 78.4883L77.7044 85.5835Z" fill="white"/>
<path opacity="0.1" d="M79.814 125.293L79.6153 125.352L79.2748 125.42H78.9531H78.622C78.2309 125.391 77.8563 125.244 77.5436 124.999L77.3922 124.852L77.3071 124.774L77.1936 124.627L77.099 124.499L77.0044 124.342L76.9192 124.186C76.9192 124.186 76.9192 124.078 76.853 124.019C76.8238 123.959 76.7985 123.897 76.7774 123.833L76.626 123.676V123.48C76.626 123.421 76.626 123.362 76.626 123.304C76.6208 123.209 76.6208 123.114 76.626 123.019C76.6208 122.967 76.6208 122.915 76.626 122.863C76.626 122.716 76.626 122.559 76.626 122.392V89.8857C76.6265 89.5343 76.655 89.1836 76.7111 88.8371C76.7111 88.7097 76.7111 88.5725 76.7868 88.4451V88.2883C77.0035 87.3448 77.3542 86.4399 77.8274 85.6031L65.851 78.4883L65.7659 78.6451C65.1506 79.7564 64.7641 80.9876 64.6307 82.2613C64.6307 82.4377 64.6307 82.6141 64.6307 82.7905V115.268C64.7108 116.782 65.1347 118.256 65.8678 119.568C66.6009 120.881 67.6226 121.997 68.8499 122.823L72.2744 124.881L72.7095 125.117L72.8704 125.185L73.1636 125.313L73.3907 125.401L73.6366 125.489L73.911 125.567L74.1191 125.626L74.4407 125.705H74.6015L74.9894 125.773H75.0651C76.662 126.025 78.2942 125.86 79.814 125.293Z" fill="black"/>
<path d="M100.191 98.3822C102.005 94.1843 102.934 89.6339 102.915 85.0346C103.802 83.6103 104.546 82.0966 105.138 80.5168C104.375 81.4445 103.515 82.2825 102.575 83.0158C103.529 81.6342 104.196 80.0625 104.533 78.4C103.714 79.5792 102.761 80.6518 101.695 81.5948C101.223 81.2313 100.651 81.035 100.063 81.035C99.4752 81.035 98.903 81.2313 98.4313 81.5948C95.5933 83.3196 93.4364 88.298 94.0891 91.7672C90.3808 93.7272 87.0887 93.2372 84.894 90.7872C83.721 94.2564 84.2886 97.5492 86.2752 98.1862C85.6673 98.5644 84.9542 98.7197 84.2507 98.6272C84.2507 101.567 85.6792 103.302 87.8266 102.606C87.2574 103.193 86.5691 103.642 85.8116 103.919C86.3792 106.026 88.0253 106.859 89.9835 105.713C88.4591 108.521 86.1508 110.786 83.3615 112.21C85.3292 112.778 87.6753 112.396 90.2011 110.887C94.6094 108.251 97.9961 103.478 100.162 98.3136" fill="white"/>
<path d="M112.054 186.857C111.969 185.35 111.544 183.885 110.812 182.579C110.081 181.274 109.065 180.164 107.844 179.34L104.41 177.282C103.106 176.596 101.663 176.238 100.2 176.238C98.7374 176.238 97.2951 176.596 95.9906 177.282L68.8404 193.521C67.547 194.363 66.4899 195.542 65.7754 196.941C65.1601 198.052 64.7736 199.283 64.6402 200.557C64.6402 200.733 64.6402 200.91 64.6402 201.086V233.563C64.723 235.068 65.1452 236.532 65.873 237.838C66.6008 239.143 67.6139 240.254 68.8309 241.08L72.2555 243.138L72.6906 243.363L72.8514 243.442L73.1447 243.569L73.3717 243.657L73.6177 243.746L73.892 243.824L74.1002 243.883L74.4218 243.961H74.5826L74.9705 244.03H75.0462C76.9907 244.344 78.9812 244 80.7222 243.05L107.844 226.899C109.071 226.07 110.093 224.953 110.826 223.639C111.559 222.324 111.983 220.85 112.063 219.334L112.054 186.857Z" fill="#9621B8" fill-opacity="0.58"/>
<path opacity="0.4" d="M77.7044 203.84C77.2312 204.677 76.8805 205.582 76.6638 206.525C77.2192 204.082 78.6583 201.953 80.6843 200.577L107.844 184.338C110.171 182.946 112.063 184.073 112.063 186.857C111.977 185.349 111.551 183.883 110.818 182.578C110.085 181.272 109.066 180.163 107.844 179.34L104.41 177.282C103.106 176.596 101.663 176.238 100.2 176.238C98.7374 176.238 97.2951 176.596 95.9906 177.282L68.8404 193.521C67.547 194.363 66.49 195.542 65.7754 196.941L65.8605 196.784L77.7044 203.84Z" fill="white"/>
<path opacity="0.1" d="M79.814 243.55L79.6154 243.608C79.504 243.644 79.3901 243.67 79.2748 243.687H78.9532H78.6221C78.2309 243.657 77.8564 243.511 77.5436 243.265L77.3923 243.118L77.3071 243.04L77.1936 242.883L77.099 242.766L77.0044 242.609L76.9193 242.452C76.9193 242.393 76.9193 242.344 76.853 242.285C76.8221 242.223 76.7968 242.157 76.7774 242.089L76.7206 241.923L76.6638 241.688C76.6638 241.688 76.6638 241.58 76.6638 241.521C76.6586 241.426 76.6586 241.331 76.6638 241.237C76.6586 241.185 76.6586 241.132 76.6638 241.08C76.6638 240.933 76.6638 240.766 76.6638 240.6V208.142C76.6644 207.791 76.6929 207.44 76.749 207.094C76.749 206.956 76.749 206.829 76.8247 206.702V206.545C77.0414 205.601 77.392 204.696 77.8653 203.86L66.0119 196.764L65.9267 196.921C65.3115 198.033 64.9249 199.264 64.7915 200.537C64.7915 200.714 64.7915 200.89 64.7915 201.067V233.544C64.8544 235.038 65.2521 236.498 65.9531 237.806C66.6542 239.113 67.6395 240.235 68.831 241.08L72.2555 243.138L72.6906 243.363L72.8515 243.442L73.1447 243.569L73.3718 243.657L73.6177 243.746L73.8921 243.824L74.1002 243.883L74.4218 243.961H74.5826L74.9705 244.03H75.0462C76.6492 244.284 78.2883 244.119 79.814 243.55Z" fill="black"/>
<path d="M94.2594 201.88C97.0407 200.214 97.3718 200.038 98.4691 199.45C99.0468 199.091 99.6918 198.863 100.361 198.783C100.789 198.738 101.217 198.868 101.553 199.146C101.931 199.443 102.207 199.859 102.338 200.332C102.582 201.127 102.703 201.957 102.698 202.792C102.745 204.271 102.755 204.752 102.755 208.564C102.755 212.376 102.755 212.856 102.698 214.444C102.681 215.415 102.561 216.381 102.338 217.325C102.167 218.063 101.903 218.775 101.553 219.442C101.239 220.095 100.838 220.698 100.361 221.235C99.8049 221.87 99.1685 222.423 98.4691 222.882C97.3718 223.607 97.0407 223.862 94.2594 225.479C91.4782 227.096 91.1565 227.331 90.0592 227.919C89.4808 228.274 88.8357 228.498 88.1672 228.575C87.7364 228.621 87.3055 228.491 86.9658 228.213C86.5931 227.912 86.3216 227.497 86.19 227.027C85.9468 226.235 85.8255 225.408 85.8306 224.577C85.8306 223.087 85.7643 222.617 85.7643 218.805C85.7643 214.993 85.7643 214.503 85.8306 212.925C85.8446 211.934 85.9652 210.948 86.19 209.985C86.3638 209.249 86.6243 208.538 86.9658 207.868C87.2875 207.217 87.6915 206.614 88.1672 206.075C88.7212 205.438 89.358 204.884 90.0592 204.428C91.1565 203.703 91.4876 203.448 94.2594 201.831M94.2594 199.244C91.4214 200.93 91.0809 201.204 89.974 201.89C89.0395 202.495 88.1897 203.231 87.4482 204.075C86.6967 204.897 86.0599 205.824 85.5562 206.829C85.0287 207.862 84.6252 208.958 84.3548 210.093C84.0604 211.331 83.8986 212.6 83.8723 213.875C83.8723 215.434 83.8061 215.933 83.8061 219.834C83.8061 223.734 83.8061 224.224 83.8723 225.714C83.8725 226.801 84.0353 227.882 84.3548 228.918C84.5644 229.64 84.984 230.276 85.5562 230.741C86.0929 231.175 86.7715 231.375 87.4482 231.3C88.3385 231.208 89.1996 230.921 89.974 230.457C91.0809 229.859 91.4309 229.663 94.2594 227.978C97.088 226.292 97.438 226.018 98.5543 225.322C100.414 224.13 101.925 222.436 102.925 220.422C103.451 219.389 103.851 218.293 104.117 217.158C104.415 215.923 104.58 214.658 104.609 213.385C104.609 211.817 104.665 211.318 104.665 207.417C104.665 203.517 104.665 203.037 104.609 201.537C104.607 200.452 104.441 199.374 104.117 198.342C103.909 197.62 103.493 196.981 102.925 196.51C102.388 196.078 101.708 195.881 101.033 195.961C100.142 196.047 99.2794 196.335 98.507 196.804C97.3907 197.392 97.0407 197.588 94.2121 199.283M94.2121 206.271C91.2606 208.035 88.8672 212.768 88.8672 216.845C88.8672 220.922 91.2606 222.793 94.2121 221.029C97.1636 219.265 99.557 214.532 99.557 210.455C99.557 206.378 97.1636 204.507 94.2121 206.271ZM94.2121 218.442C92.3201 219.589 90.7498 218.374 90.7498 215.728C90.7498 213.082 92.3012 210.004 94.2121 208.868C96.123 207.731 97.6839 208.936 97.6839 211.592C97.6839 214.248 96.1325 217.305 94.2121 218.452M101.014 201.919C101.014 200.939 100.456 200.528 99.7651 200.939C99.3839 201.222 99.0722 201.594 98.8552 202.025C98.6383 202.455 98.5222 202.933 98.5164 203.419C98.5164 204.399 99.0746 204.801 99.7651 204.399C100.145 204.117 100.456 203.747 100.673 203.318C100.89 202.889 101.007 202.413 101.014 201.929" fill="white"/>
<path d="M159.316 111.24C159.242 109.73 158.825 108.259 158.101 106.946C157.376 105.633 156.363 104.516 155.144 103.684L151.71 101.626C150.404 100.94 148.96 100.582 147.496 100.582C146.031 100.582 144.587 100.94 143.281 101.626L116.131 117.865C114.983 118.654 114.013 119.691 113.29 120.906C112.566 122.121 112.106 123.484 111.94 124.901C111.94 125.077 111.94 125.254 111.94 125.43V157.907C112.019 159.421 112.441 160.894 113.172 162.207C113.904 163.52 114.924 164.636 116.15 165.463L119.584 167.521L120.019 167.756L120.18 167.825L120.473 167.952L120.691 168.041L120.946 168.129L121.211 168.207L121.429 168.266L121.75 168.344H121.911L122.299 168.413H122.375C124.314 168.742 126.304 168.415 128.051 167.482L155.144 151.283C156.37 150.453 157.39 149.336 158.122 148.021C158.853 146.707 159.275 145.232 159.354 143.717L159.316 111.24Z" fill="#9621B8" fill-opacity="0.58"/>
<path opacity="0.4" d="M124.976 128.223C124.504 129.062 124.151 129.966 123.926 130.908C124.484 128.464 125.926 126.334 127.956 124.96L155.144 108.721C157.471 107.33 159.354 108.457 159.354 111.24C159.275 109.726 158.853 108.253 158.122 106.94C157.39 105.627 156.37 104.512 155.144 103.684L151.71 101.626C150.404 100.94 148.96 100.582 147.496 100.582C146.031 100.582 144.587 100.94 143.281 101.626L116.131 117.865C114.842 118.71 113.789 119.889 113.075 121.285L113.151 121.128L124.976 128.223Z" fill="white"/>
<path opacity="0.1" d="M127.086 167.933L126.878 167.992C126.769 168.027 126.659 168.053 126.546 168.07H126.234H125.818C125.43 168.039 125.059 167.893 124.749 167.649L124.598 167.502L124.513 167.423L124.39 167.267L124.304 167.149C124.267 167.1 124.236 167.048 124.21 166.992L124.125 166.835C124.125 166.786 124.125 166.728 124.049 166.669L123.983 166.483L123.926 166.306C123.926 166.234 123.907 166.156 123.869 166.071C123.864 166.016 123.864 165.96 123.869 165.904C123.864 165.81 123.864 165.715 123.869 165.62C123.864 165.568 123.864 165.515 123.869 165.463C123.86 165.307 123.86 165.15 123.869 164.993V132.525C123.874 132.174 123.903 131.824 123.954 131.477C123.954 131.34 123.954 131.212 124.021 131.085C124.024 131.033 124.024 130.98 124.021 130.928C124.245 129.986 124.599 129.081 125.071 128.243L113.208 121.148L113.132 121.305C112.513 122.414 112.126 123.646 111.997 124.921C111.997 125.097 111.997 125.273 111.997 125.45V157.927C112.075 159.441 112.497 160.914 113.229 162.227C113.96 163.54 114.981 164.655 116.207 165.483L119.641 167.541L120.076 167.776L120.237 167.845L120.53 167.972L120.747 168.06L121.003 168.149L121.268 168.227L121.485 168.286L121.807 168.364H121.968L122.356 168.433H122.431C123.999 168.661 125.597 168.49 127.086 167.933Z" fill="#CC0E34"/>
<path d="M138.598 156.134L143.13 153.419V137.739L146.289 135.848L146.621 130.399L143.13 132.486V129.497C143.13 128.262 143.31 127.665 144.17 127.155L146.621 125.685V120.236L143.489 122.118C141.94 122.964 140.657 124.251 139.79 125.827C138.923 127.404 138.51 129.204 138.598 131.016V135.24L136.224 136.622V141.933L138.58 140.532L138.598 156.134Z" fill="white"/>
<path d="M97.9678 360.64L206.502 425.536C207.777 426.207 209.187 426.557 210.617 426.557C212.048 426.557 213.458 426.207 214.733 425.536L383.991 324.311C386.261 322.949 386.261 320.754 383.991 319.411L275.456 254.477C274.183 253.805 272.775 253.455 271.346 253.455C269.917 253.455 268.509 253.805 267.236 254.477L97.9678 355.74C95.6974 357.073 95.6974 359.268 97.9678 360.64Z" fill="#E0E0E0"/>
<path d="M101.383 344.96L206.843 408.043C208.131 408.719 209.556 409.072 211.001 409.072C212.445 409.072 213.87 408.719 215.158 408.043L382.364 308.053C384.662 306.681 384.662 304.457 382.364 303.085L276.894 240.002C275.606 239.325 274.181 238.973 272.737 238.973C271.292 238.973 269.867 239.325 268.579 240.002L101.383 340.06C99.084 341.383 99.084 343.608 101.383 344.96Z" fill="#37474F"/>
<path d="M206.843 408.062L101.383 344.96C99.33 343.735 99.1124 341.824 100.73 340.452C99.7022 341.296 98.8581 342.356 98.2533 343.562C97.6484 344.768 97.2965 346.093 97.2204 347.449V351.497C97.2991 352.993 97.717 354.448 98.4402 355.746C99.1634 357.043 100.171 358.146 101.383 358.964L206.843 422.037C208.123 422.742 209.556 423.096 211.005 423.066V409.091C209.556 409.121 208.123 408.767 206.843 408.062Z" fill="#455A64"/>
<path d="M382.364 322.048C383.574 321.231 384.58 320.13 385.302 318.834C386.024 317.538 386.44 316.084 386.517 314.59V310.542C386.441 309.186 386.09 307.861 385.485 306.655C384.88 305.449 384.035 304.389 383.007 303.545C384.625 304.917 384.417 306.828 382.364 308.053L215.158 408.062C213.881 408.765 212.452 409.119 211.005 409.091V423.086C212.452 423.114 213.881 422.759 215.158 422.057L382.364 322.048Z" fill="#263238"/>
<path d="M157.982 374.095C159.771 375.038 161.75 375.529 163.757 375.529C165.765 375.529 167.743 375.038 169.533 374.095C172.721 372.135 172.721 369.097 169.533 367.186C167.742 366.249 165.764 365.761 163.757 365.761C161.751 365.761 159.773 366.249 157.982 367.186C154.832 369.097 154.832 372.194 157.982 374.095Z" fill="#263238"/>
<path d="M223.256 394.675L122.308 334.258C120.937 333.435 120.937 332.093 122.308 331.269L253.802 252.595C254.575 252.189 255.429 251.978 256.295 251.978C257.161 251.978 258.015 252.189 258.788 252.595L359.735 313.012C361.117 313.835 361.117 315.168 359.735 315.952L228.241 394.636C227.472 395.048 226.619 395.266 225.753 395.273C224.887 395.28 224.032 395.075 223.256 394.675Z" fill="white"/>
<path d="M321.999 275.978C322.453 276.215 322.953 276.338 323.461 276.338C323.969 276.338 324.469 276.215 324.923 275.978C325.08 275.897 325.212 275.771 325.305 275.616C325.398 275.462 325.447 275.283 325.447 275.101C325.447 274.918 325.398 274.74 325.305 274.585C325.212 274.43 325.08 274.305 324.923 274.224C324.469 273.987 323.969 273.863 323.461 273.863C322.953 273.863 322.453 273.987 321.999 274.224C321.186 274.704 321.186 275.488 321.999 275.978Z" fill="#263238"/>
<path d="M326.673 289.717C327.579 290.191 328.58 290.438 329.596 290.438C330.611 290.438 331.612 290.191 332.519 289.717C334.137 288.737 334.137 287.179 332.519 286.219C331.614 285.74 330.612 285.491 329.596 285.491C328.58 285.491 327.578 285.74 326.673 286.219C325.055 287.14 325.055 288.747 326.673 289.717Z" fill="#263238"/>
<path d="M322.586 283.622C323.664 282.985 323.608 281.907 322.454 281.221L303.212 269.706C302.593 269.366 301.906 269.181 301.206 269.168C300.506 269.154 299.812 269.311 299.182 269.627C298.104 270.274 298.16 271.352 299.314 272.038L318.556 283.553C319.175 283.892 319.863 284.075 320.563 284.087C321.263 284.098 321.956 283.939 322.586 283.622Z" fill="#263238"/>
<path d="M252.1 268.843C250.718 269.667 250.718 270.999 252.1 271.783L329.009 317.794C329.784 318.2 330.639 318.411 331.507 318.411C332.374 318.411 333.23 318.2 334.004 317.794L351.032 307.632L269.128 258.632L252.1 268.843Z" fill="#EBEBEB"/>
<path d="M252.667 276.83L246.528 273.165C246.271 273.03 245.988 272.96 245.7 272.96C245.412 272.96 245.129 273.03 244.872 273.165L241.003 275.478C240.539 275.752 240.539 276.193 241.003 276.458L241.533 276.781L239.575 277.859C239.347 277.987 239.366 278.065 239.631 278.046L243.075 277.703L247.143 280.133C247.402 280.265 247.686 280.333 247.975 280.333C248.264 280.333 248.548 280.265 248.807 280.133L252.667 277.82C252.764 277.782 252.848 277.715 252.907 277.626C252.965 277.538 252.997 277.433 252.997 277.325C252.997 277.218 252.965 277.113 252.907 277.025C252.848 276.936 252.764 276.869 252.667 276.83Z" fill="#EBEBEB"/>
<path d="M254.474 286.395L254.02 285.415C253.433 284.131 253.074 282.387 254.777 281.378C255.422 281.039 256.135 280.863 256.858 280.863C257.581 280.863 258.294 281.039 258.939 281.378C259.828 281.907 260.027 282.701 259.535 283.338C260.64 283.024 261.817 283.15 262.837 283.69C263.089 283.775 263.31 283.941 263.466 284.164C263.622 284.387 263.706 284.655 263.706 284.93C263.706 285.205 263.622 285.474 263.466 285.696C263.31 285.919 263.089 286.085 262.837 286.17C261.172 287.15 258.258 286.973 256.111 286.63L254.474 286.395Z" fill="#EBEBEB"/>
<path d="M170.185 320.813L247.105 366.824C247.879 367.229 248.734 367.441 249.602 367.441C250.47 367.441 251.325 367.229 252.1 366.824L312 330.985C313.372 330.162 313.372 328.829 312 328.045L235.081 281.995C234.307 281.589 233.451 281.378 232.584 281.378C231.716 281.378 230.86 281.589 230.086 281.995L170.185 317.834C168.804 318.657 168.804 319.99 170.185 320.813Z" fill="#EBEBEB"/>
<path d="M170.772 325.821L164.604 322.146C164.345 322.014 164.06 321.946 163.772 321.946C163.483 321.946 163.198 322.014 162.939 322.146L159.07 324.458C158.976 324.498 158.896 324.566 158.839 324.653C158.782 324.74 158.752 324.843 158.752 324.948C158.752 325.054 158.782 325.156 158.839 325.244C158.896 325.331 158.976 325.399 159.07 325.438L159.609 325.762L157.651 326.83C157.414 326.957 157.443 327.046 157.651 327.016L161.094 326.683L165.162 329.113C165.421 329.245 165.706 329.313 165.995 329.313C166.283 329.313 166.568 329.245 166.827 329.113L170.696 326.791C170.795 326.762 170.882 326.703 170.947 326.621C171.012 326.539 171.051 326.438 171.059 326.333C171.068 326.227 171.044 326.122 170.993 326.03C170.942 325.939 170.865 325.865 170.772 325.821Z" fill="#EBEBEB"/>
<path d="M172.531 335.376L172.087 334.396C171.491 333.112 171.141 331.367 172.844 330.348C173.487 330.01 174.199 329.834 174.92 329.834C175.642 329.834 176.353 330.01 176.997 330.348C177.943 330.887 178.094 331.681 177.593 332.308C178.701 332.006 179.878 332.132 180.904 332.661C181.155 332.749 181.374 332.916 181.529 333.139C181.684 333.363 181.767 333.631 181.767 333.906C181.767 334.181 181.684 334.449 181.529 334.672C181.374 334.895 181.155 335.063 180.904 335.15C179.239 336.13 176.325 335.954 174.168 335.611L172.531 335.376Z" fill="#EBEBEB"/>
<path d="M148.191 330.985C148.965 330.58 149.821 330.368 150.688 330.368C151.556 330.368 152.411 330.58 153.186 330.985L230.096 376.986C231.477 377.81 231.477 379.152 230.096 379.975L214.401 389.364L132.516 340.364L148.191 330.985Z" fill="#EBEBEB"/>
<path d="M233.662 320.391L189.881 332.573L247.124 366.814C247.898 367.22 248.753 367.431 249.621 367.431C250.489 367.431 251.344 367.22 252.118 366.814L253.358 366.069L278.058 328.525L225.602 339.188L233.662 320.391Z" fill="#E0E0E0"/>
<path d="M255.221 294.049L235.081 281.995C234.307 281.589 233.451 281.378 232.584 281.378C231.716 281.378 230.86 281.589 230.086 281.995L207.571 295.47C208.602 297.499 210.731 299.39 213.957 301.027C223.417 305.711 238.818 305.711 248.306 301.027C252.279 299.067 254.578 296.597 255.221 294.049Z" fill="#E0E0E0"/>
<path opacity="0.2" d="M352.347 289.806L251.39 229.398C250.617 228.993 249.763 228.782 248.897 228.782C248.031 228.782 247.177 228.993 246.405 229.398L114.911 308.073C113.539 308.896 113.539 310.229 114.911 311.013L136.252 323.753L215.896 371.41C216.669 371.816 217.523 372.027 218.389 372.027C219.255 372.027 220.109 371.816 220.882 371.41L339.245 300.566L352.338 292.726C353.728 291.971 353.728 290.629 352.347 289.806Z" fill="white"/>
<path d="M352.593 289.374L269.118 239.394L251.636 228.967C250.79 228.518 249.853 228.284 248.902 228.284C247.951 228.284 247.014 228.518 246.168 228.967L114.674 307.642C114.299 307.791 113.977 308.054 113.75 308.397C113.522 308.74 113.401 309.146 113.401 309.562C113.401 309.978 113.522 310.385 113.75 310.728C113.977 311.07 114.299 311.334 114.674 311.483L136.016 324.223L215.688 371.91C216.534 372.361 217.471 372.596 218.422 372.596C219.373 372.596 220.31 372.361 221.156 371.91L339.51 301.066L352.612 293.226C352.986 293.074 353.307 292.809 353.533 292.466C353.76 292.122 353.881 291.716 353.881 291.3C353.881 290.884 353.76 290.478 353.533 290.134C353.307 289.791 352.986 289.526 352.612 289.374H352.593ZM352.111 292.363L339.009 300.203L220.654 371.048C219.954 371.41 219.181 371.599 218.398 371.599C217.615 371.599 216.843 371.41 216.142 371.048L136.498 323.4L115.166 310.66C114.938 310.6 114.736 310.462 114.592 310.27C114.448 310.077 114.369 309.84 114.369 309.597C114.369 309.353 114.448 309.116 114.592 308.924C114.736 308.731 114.938 308.594 115.166 308.533L246.66 229.859C247.361 229.499 248.133 229.312 248.916 229.312C249.699 229.312 250.471 229.499 251.172 229.859L268.664 240.296L352.139 290.276C352.367 290.336 352.569 290.474 352.713 290.666C352.857 290.859 352.936 291.096 352.936 291.339C352.936 291.583 352.857 291.82 352.713 292.012C352.569 292.205 352.367 292.342 352.139 292.403L352.111 292.363Z" fill="white"/>
<path d="M307.043 44.8252C308.434 43.9922 309.569 44.6684 309.569 46.3344V238.993C309.52 239.901 309.266 240.785 308.828 241.573C308.389 242.361 307.778 243.031 307.043 243.53L234.466 286.944L225.952 316.344C225.186 319.01 223.653 319.127 222.537 316.589L214.742 298.763L193.552 311.434C192.161 312.267 191.026 311.591 191.026 309.925V117.267C191.073 116.358 191.326 115.474 191.765 114.685C192.204 113.897 192.816 113.227 193.552 112.729L307.043 44.8252Z" fill="url(#paint0_linear_58_72)" fill-opacity="0.7"/>
<path d="M297.772 193.55C297.686 194.798 297.316 196.006 296.693 197.077C296.07 198.149 295.211 199.052 294.187 199.714L254.313 223.568C252.336 224.743 250.728 223.911 250.728 221.686C250.817 220.439 251.189 219.232 251.811 218.161C252.434 217.09 253.291 216.186 254.313 215.522L294.206 191.678C296.174 190.492 297.772 191.335 297.772 193.55Z" fill="white"/>
<path d="M290.422 217.374C290.333 218.621 289.962 219.828 289.339 220.899C288.717 221.97 287.859 222.874 286.837 223.538L253.717 243.373C251.74 244.559 250.141 243.716 250.141 241.492C250.228 240.247 250.597 239.041 251.219 237.971C251.84 236.902 252.696 236 253.717 235.337L286.874 215.502C288.852 214.316 290.422 215.159 290.422 217.374Z" fill="white"/>
<path d="M230.682 251.262L230.597 250.106C228.79 254.829 226.066 258.22 223.029 260.033C217.665 263.248 212.869 260.396 212.869 251.889C212.869 243.873 216.653 235.082 222.546 231.584C226.416 229.271 229.055 230.976 229.49 231.986V230.026C229.49 228.938 230.559 227.419 231.865 226.635C233.17 225.851 234.249 226.566 234.249 228.242V246.421C234.249 248.734 235.081 249.204 236.263 248.489C238.42 247.205 240.407 241.707 240.407 235.445C240.407 223.352 234.286 217.717 224.524 223.558C215.376 229.026 208.12 242.844 208.12 254.918C208.12 266.766 214.979 271.284 223.956 265.923C226.534 264.264 228.819 262.159 230.71 259.7C231.732 258.406 232.848 258.014 233.34 258.936C233.832 259.857 233.53 261.758 232.517 263.052C230.124 266.163 227.246 268.839 224.003 270.97C212.831 277.644 204.383 271.823 204.383 257.181C204.383 242.227 213.228 225.459 224.571 218.667C235.913 211.876 244.229 217.913 244.229 233.044C244.229 242.217 240.757 250.253 235.828 253.193C233.104 254.741 231.165 254.379 230.682 251.262ZM218.015 248.508C218.015 253.193 220.21 255.76 223.559 253.761C226.908 251.762 229.235 246.627 229.235 241.893C229.235 237.336 226.993 235.033 223.511 237.111C220.21 239.051 218.015 244.02 218.015 248.508Z" fill="white"/>
<path d="M250.274 106.82C269.865 95.0599 285.739 104.605 285.739 128.037C285.739 151.469 269.865 179.977 250.274 191.678C230.682 203.379 214.808 193.893 214.808 170.461C214.808 147.029 230.682 118.58 250.274 106.82Z" fill="white"/>
<path d="M250.274 106.82C269.865 95.0599 285.739 104.605 285.739 128.037C285.739 151.469 269.865 179.977 250.274 191.678C230.682 203.379 214.808 193.893 214.808 170.461C214.808 147.029 230.682 118.58 250.274 106.82Z" fill="#F5F5F5"/>
<mask id="mask0_58_72" style="mask-type:luminance" maskUnits="userSpaceOnUse" x="214" y="101" width="72" height="96">
<path d="M250.274 106.82C269.865 95.0599 285.739 104.605 285.739 128.037C285.739 151.469 269.865 179.977 250.274 191.678C230.682 203.379 214.808 193.893 214.808 170.461C214.808 147.029 230.682 118.58 250.274 106.82Z" fill="white"/>
</mask>
<g mask="url(#mask0_58_72)">
<path d="M237.342 137.935C235.717 138.226 234.265 139.161 233.293 140.542C231.552 142.864 231.912 146.177 233.293 153.635L238.676 152.782L237.342 137.935Z" fill="#263238"/>
<path d="M268.711 126.959C269.92 126.624 271.061 126.067 272.079 125.313C273.735 123.872 274.16 125.705 273.252 127.645C272.65 129.028 271.789 130.274 270.719 131.31C269.649 132.346 268.391 133.152 267.018 133.682C266.961 133.447 265.467 129.762 265.467 129.762L268.711 126.959Z" fill="#263238"/>
<path d="M240.435 176.4C240.435 176.4 230.408 183.103 228.232 185.465C226.056 187.827 225.157 195.187 224.353 204.193C224.353 204.193 235.772 209.181 253.679 199.998C271.587 190.816 273.205 183.554 273.205 183.554C273.205 183.554 270.887 172.647 270.026 169.618C268.938 165.787 266.838 163.023 254.625 168.766L240.435 176.4Z" fill="#263238"/>
<path d="M239.868 152.459C239.064 153.174 237.928 151.9 236.945 151.106C235.961 150.312 232.744 149.744 231.136 153.693C229.528 157.643 233.217 161.426 235.393 162.396C236.138 162.72 236.957 162.813 237.751 162.663C238.546 162.514 239.281 162.128 239.868 161.553L240.435 176.4C240.435 176.4 243.273 181.486 251.031 180.428C258.788 179.369 257.17 171.294 254.635 168.766V165.708C254.635 165.708 258.636 165.434 260.519 164.395C261.531 163.836 263.934 160.152 265.485 156.349C268.684 149.345 269.414 141.401 267.548 133.897C264.776 122.451 252.109 125.597 244.56 132.614C237.011 139.63 239.868 152.459 239.868 152.459Z" fill="#FFA8A7"/>
<path d="M270.897 115.473C270.215 113.161 269.799 113.572 264.322 117.561C260.139 120.612 255.47 122.878 250.529 124.254C246.669 125.469 241.391 126.43 238.676 130.134C237.508 131.727 236.913 133.692 236.992 135.691C236.762 135.47 236.482 135.311 236.178 135.23C234.845 134.858 233.208 135.867 232.517 137.494L237.247 138.797C236.878 141.62 235.819 150.332 236.973 151.096C237.966 151.753 239.489 153.958 239.896 153.84C241.249 153.439 241.788 147.225 242.526 143.462C243.33 139.18 243.642 137.582 245.128 137.406C249.951 136.618 254.699 135.395 259.318 133.75C264.426 131.683 265.892 129.928 265.892 129.928L268.617 128.135C269.833 126.308 270.664 124.237 271.057 122.055C271.45 119.874 271.395 117.631 270.897 115.473Z" fill="#263238"/>
<path d="M254.616 165.708C254.616 165.708 247.455 166.208 244.957 165.522C243.519 165.167 242.274 164.237 241.495 162.935C241.849 164.297 242.525 165.547 243.463 166.571C245.288 168.531 254.616 167.688 254.616 167.688V165.708Z" fill="#F28F8F"/>
<path d="M252.79 157.094L256.063 157.457C255.928 157.96 255.638 158.403 255.236 158.718C254.835 159.033 254.344 159.203 253.84 159.201C252.932 159.103 252.468 158.162 252.79 157.094Z" fill="#F28F8F"/>
<path d="M257.52 143.864L257.993 152.674L262.506 149.842L257.52 143.864Z" fill="#F28F8F"/>
<path d="M252.894 147C252.885 147.441 252.742 147.867 252.486 148.219C252.229 148.571 251.872 148.83 251.466 148.96C251.296 149.02 251.114 149.036 250.937 149.006C250.759 148.976 250.592 148.901 250.449 148.787C250.307 148.673 250.194 148.525 250.12 148.355C250.047 148.185 250.015 147.999 250.028 147.813C250.039 147.372 250.184 146.945 250.442 146.593C250.7 146.241 251.058 145.983 251.466 145.853C251.635 145.792 251.817 145.776 251.994 145.806C252.171 145.836 252.338 145.912 252.48 146.026C252.622 146.14 252.734 146.288 252.806 146.458C252.879 146.629 252.909 146.815 252.894 147Z" fill="#263238"/>
<path d="M251.371 141.796L248.306 144.403C248.108 143.931 248.071 143.402 248.201 142.905C248.332 142.408 248.623 141.972 249.025 141.669C249.176 141.496 249.362 141.36 249.57 141.271C249.778 141.182 250.003 141.142 250.227 141.154C250.452 141.166 250.671 141.23 250.869 141.341C251.067 141.452 251.239 141.608 251.371 141.796Z" fill="#263238"/>
<path d="M265.694 139.052L262.856 137.602C263.069 137.148 263.434 136.79 263.883 136.594C264.331 136.397 264.833 136.376 265.296 136.534C265.49 136.665 265.654 136.837 265.78 137.039C265.906 137.24 265.991 137.466 266.028 137.703C266.065 137.939 266.055 138.181 265.997 138.414C265.94 138.646 265.836 138.863 265.694 139.052Z" fill="#263238"/>
<path d="M264.88 143.247C264.868 143.687 264.724 144.112 264.468 144.463C264.212 144.814 263.857 145.074 263.452 145.207C263.282 145.267 263.1 145.283 262.922 145.253C262.745 145.222 262.578 145.147 262.435 145.034C262.293 144.92 262.18 144.772 262.106 144.602C262.033 144.432 262.001 144.246 262.014 144.06C262.025 143.618 262.17 143.192 262.428 142.84C262.686 142.488 263.044 142.229 263.452 142.1C263.621 142.039 263.803 142.023 263.98 142.053C264.157 142.083 264.324 142.158 264.466 142.272C264.608 142.386 264.72 142.535 264.792 142.705C264.864 142.875 264.895 143.061 264.88 143.247Z" fill="#263238"/>
</g>
<defs>
<linearGradient id="paint0_linear_58_72" x1="250.297" y1="44.4686" x2="250.297" y2="318.42" gradientUnits="userSpaceOnUse">
<stop stop-color="#0847AD"/>
<stop offset="1" stop-color="#CC0E34"/>
</linearGradient>
</defs>
</svg>
