<svg width="315" height="326" viewBox="0 0 315 326" fill="none" xmlns="http://www.w3.org/2000/svg">
<path d="M69.3 277.752C119.763 302.639 201.537 302.639 252 277.752C302.463 252.865 302.4 212.552 252 187.665C201.6 162.778 119.788 162.785 69.3504 187.665C18.9126 212.545 18.9 252.878 69.3 277.752Z" fill="#EBEBEB"/>
<path d="M231.89 92.7796L234.209 90.9344V85.6532C234.209 81.4739 237.428 76.6165 240.931 74.5236C244.434 72.4307 247.275 74.1259 247.275 78.3117V79.0745C248.011 77.8371 249.017 76.7945 250.211 76.0297C252.731 74.5236 254.778 75.7428 254.778 78.7551V79.1071L259.415 76.3361C261.072 75.3451 262.42 76.1471 262.42 78.1291C262.363 79.208 262.061 80.2578 261.539 81.1934C261.017 82.1291 260.29 82.9243 259.415 83.5147L231.89 99.9581C230.234 100.949 228.885 100.147 228.885 98.1651C228.942 97.0862 229.244 96.0365 229.766 95.1008C230.288 94.1651 231.016 93.3699 231.89 92.7796Z" fill="#EBEBEB"/>
<path d="M65.5767 236.311C65.2491 236.252 64.9026 236.148 64.512 236.044C63.1956 235.678 61.8982 235.243 60.6249 234.74C58.0853 233.786 55.6903 232.462 53.5122 230.808C52.3177 229.929 51.2957 228.822 50.5008 227.548C49.7063 226.258 49.4242 224.7 49.7133 223.199C49.8733 222.458 50.2348 221.781 50.755 221.246C51.2752 220.711 51.9324 220.341 52.6491 220.18C53.3232 220.07 54.0225 220.18 54.6966 220.056C55.0417 220.028 55.369 219.886 55.6308 219.651C55.8926 219.417 56.0752 219.102 56.1519 218.752C56.1546 218.353 56.0499 217.96 55.8495 217.618C54.6255 215.298 53.5725 212.885 52.6995 210.4C51.9687 208.183 51.9247 205.786 52.5735 203.541C53.1244 201.308 54.3042 199.296 55.9629 197.758C56.7189 197.106 57.7647 196.545 58.6782 196.956C58.9686 197.109 59.2237 197.325 59.426 197.59C59.6282 197.854 59.7729 198.161 59.85 198.488C59.991 199.143 60.0628 199.812 60.0642 200.483C60.1542 201.927 60.4209 203.354 60.858 204.728C61.0536 205.587 61.5299 206.349 62.2062 206.886C63.378 207.642 64.9908 207.049 66.2382 207.662C67.4856 208.275 67.914 209.683 67.9707 211.013C68.0274 212.343 67.7691 213.686 67.914 215.01C67.9394 215.428 68.0673 215.832 68.2857 216.184C68.6325 216.568 69.034 216.896 69.4764 217.155C70.0575 217.653 70.5234 218.279 70.8396 218.987C71.1558 219.696 71.3143 220.469 71.3034 221.25C71.2652 222.809 70.9778 224.351 70.4529 225.814C69.8745 227.858 69.4532 229.947 69.1929 232.06C68.9875 233.355 68.4575 234.571 67.6557 235.587C67.4179 235.908 67.0931 236.148 66.7228 236.277C66.3525 236.406 65.9535 236.418 65.5767 236.311Z" fill="#9621B8" fill-opacity="0.59"/>
<path d="M67.6683 235.229C67.6312 235.228 67.5948 235.218 67.5628 235.198C67.5307 235.179 67.5041 235.151 67.4856 235.118C60.1335 222.286 57.8088 213.25 57.1473 207.923C56.4228 202.12 57.4434 199.401 57.4875 199.29C57.4978 199.263 57.5133 199.238 57.533 199.217C57.5527 199.195 57.5762 199.178 57.6022 199.167C57.6282 199.155 57.6563 199.148 57.6847 199.148C57.7131 199.147 57.7414 199.152 57.7678 199.163C57.7943 199.174 57.8185 199.19 57.839 199.21C57.8595 199.231 57.8759 199.255 57.8873 199.282C57.8987 199.309 57.9049 199.338 57.9055 199.367C57.9061 199.397 57.901 199.426 57.8907 199.453C57.8907 199.499 56.8701 202.231 57.582 207.929C58.212 213.204 60.5682 222.162 67.8573 234.896C67.872 234.921 67.8817 234.949 67.8859 234.978C67.8901 235.007 67.8886 235.037 67.8816 235.066C67.8745 235.094 67.8621 235.121 67.8449 235.144C67.8278 235.168 67.8063 235.188 67.7817 235.202C67.7463 235.22 67.7075 235.229 67.6683 235.229Z" fill="white"/>
<path d="M63.7371 227.789C54.7785 226.772 52.2459 223.727 52.1388 223.597C52.0988 223.555 52.0763 223.499 52.0763 223.44C52.0763 223.382 52.0988 223.325 52.1388 223.284C52.1582 223.263 52.1817 223.246 52.2077 223.234C52.2337 223.222 52.2617 223.216 52.29 223.216C52.3183 223.216 52.3463 223.222 52.3723 223.234C52.3983 223.246 52.4218 223.263 52.4412 223.284C52.4412 223.317 54.999 226.322 63.7497 227.32C63.801 227.329 63.8475 227.356 63.8811 227.398C63.9147 227.439 63.9331 227.491 63.9331 227.545C63.9331 227.599 63.9147 227.651 63.8811 227.692C63.8475 227.733 63.801 227.761 63.7497 227.77L63.7371 227.789Z" fill="white"/>
<path d="M61.2108 222.012C61.1631 222.012 61.1166 221.996 61.0785 221.967C61.056 221.949 61.0372 221.927 61.0231 221.901C61.009 221.876 60.9999 221.848 60.9964 221.819C60.9929 221.789 60.995 221.76 61.0026 221.732C61.0102 221.703 61.0231 221.677 61.0407 221.654C63.882 217.787 64.0647 211.45 64.071 211.385C64.0709 211.355 64.0767 211.326 64.0879 211.299C64.0991 211.272 64.1156 211.248 64.1362 211.228C64.1569 211.208 64.1813 211.192 64.208 211.182C64.2347 211.172 64.2631 211.168 64.2915 211.17C64.3199 211.17 64.348 211.176 64.3741 211.187C64.4001 211.199 64.4236 211.216 64.4431 211.237C64.4626 211.259 64.4776 211.284 64.4873 211.312C64.497 211.339 64.5011 211.369 64.4994 211.398C64.4994 211.665 64.3104 217.918 61.3872 221.921C61.3666 221.95 61.34 221.973 61.3094 221.988C61.2788 222.004 61.245 222.012 61.2108 222.012Z" fill="white"/>
<path d="M244.818 196.682C245.687 190.619 245.7 183.218 241.397 172.408C237.094 161.598 238.43 155.932 243.041 154.387C247.653 152.842 257.872 161.05 257.494 174.853C257.122 188.18 248.422 199.186 248.422 199.186L244.818 196.682Z" fill="#9621B8" fill-opacity="0.59"/>
<path opacity="0.1" d="M244.818 196.682C245.687 190.619 245.7 183.218 241.397 172.408C237.094 161.598 238.43 155.932 243.041 154.387C247.653 152.842 257.872 161.05 257.494 174.853C257.122 188.18 248.422 199.186 248.422 199.186L244.818 196.682Z" fill="black"/>
<path d="M247.067 198.469C247.04 198.475 247.012 198.475 246.985 198.469C246.958 198.458 246.934 198.442 246.914 198.421C246.893 198.4 246.877 198.375 246.867 198.348C246.856 198.32 246.851 198.291 246.852 198.261C246.853 198.231 246.859 198.202 246.872 198.175C246.916 198.065 251.628 186.674 251.282 176.333C250.891 164.434 244.522 157.888 244.459 157.823C244.439 157.803 244.422 157.778 244.411 157.751C244.4 157.724 244.394 157.695 244.394 157.666C244.394 157.636 244.399 157.607 244.41 157.58C244.42 157.553 244.436 157.528 244.456 157.507C244.476 157.486 244.499 157.469 244.525 157.458C244.551 157.446 244.58 157.44 244.608 157.44C244.636 157.439 244.664 157.445 244.691 157.456C244.717 157.467 244.741 157.483 244.761 157.504C244.824 157.569 251.313 164.226 251.691 176.32C252.038 186.752 247.281 198.241 247.244 198.351C247.226 198.385 247.2 198.413 247.17 198.433C247.139 198.454 247.104 198.466 247.067 198.469Z" fill="white"/>
<path d="M245.07 202.061C245.07 202.061 247.502 187.404 256.133 178.981C264.764 170.557 279.153 168.953 283.664 173.452C288.175 177.95 285.283 182.325 278.926 183.844C271.744 185.559 267.341 188.558 271.744 190.853C275.833 192.979 275.373 197.589 271.114 199.799C264.31 203.333 252.025 199.968 249.064 206.919L245.07 202.061Z" fill="#9621B8" fill-opacity="0.59"/>
<path d="M246.897 205.165H246.828C246.774 205.144 246.73 205.103 246.705 205.049C246.681 204.996 246.677 204.934 246.695 204.878C248.685 199.147 251.751 193.879 255.717 189.38C258.825 185.901 262.465 182.973 266.49 180.715C270.489 178.431 274.843 176.886 279.355 176.151C279.412 176.145 279.469 176.163 279.514 176.201C279.559 176.239 279.588 176.294 279.594 176.353C279.597 176.382 279.595 176.412 279.588 176.44C279.58 176.468 279.567 176.495 279.55 176.518C279.532 176.541 279.51 176.56 279.485 176.574C279.461 176.589 279.433 176.597 279.405 176.601C274.938 177.343 270.632 178.888 266.679 181.165C260.379 184.705 251.83 191.727 247.086 205.061C247.065 205.093 247.037 205.119 247.004 205.137C246.971 205.155 246.934 205.165 246.897 205.165Z" fill="white"/>
<path d="M251.275 195.946C251.23 195.946 251.186 195.931 251.149 195.905C251.111 195.878 251.083 195.84 251.068 195.796C251.049 195.739 251.053 195.678 251.078 195.624C251.102 195.571 251.146 195.529 251.2 195.509C258.565 192.849 269.123 194.244 269.23 194.257C269.259 194.261 269.286 194.27 269.31 194.285C269.335 194.3 269.356 194.319 269.374 194.343C269.391 194.366 269.404 194.392 269.411 194.421C269.418 194.449 269.42 194.479 269.416 194.508C269.413 194.537 269.403 194.565 269.389 194.591C269.375 194.616 269.356 194.638 269.334 194.656C269.311 194.674 269.285 194.687 269.258 194.695C269.23 194.702 269.202 194.704 269.174 194.7C269.073 194.7 258.609 193.305 251.345 195.933C251.323 195.943 251.299 195.947 251.275 195.946Z" fill="white"/>
<path d="M74.6235 45.64C74.5708 44.633 74.2895 43.6531 73.8024 42.7797C73.3153 41.9063 72.6362 41.164 71.82 40.6131L69.5331 39.2439C68.6644 38.7874 67.7039 38.5496 66.7296 38.5496C65.7553 38.5496 64.7948 38.7874 63.9261 39.2439L45.8388 50.0475C44.9774 50.6077 44.2735 51.3924 43.7976 52.323C43.3878 53.0624 43.1304 53.8815 43.0416 54.7289C43.0416 54.8463 43.0416 54.9636 43.0416 55.081V76.6883C43.095 77.6958 43.3772 78.6761 43.8654 79.5496C44.3537 80.423 45.0341 81.165 45.8514 81.7152L48.132 83.0844L48.4218 83.2409L48.5289 83.2865L48.7242 83.3713L48.8754 83.4299L49.0392 83.4886L49.2219 83.5408L49.3605 83.5799L49.5747 83.6321H49.6818L49.9401 83.6777H49.9905C51.2821 83.8968 52.6075 83.6796 53.7705 83.0583L71.82 72.2807C72.6375 71.7291 73.3178 70.986 73.806 70.1115C74.2942 69.237 74.5764 68.2557 74.6298 67.2473L74.6235 45.64Z" fill="#9621B8" fill-opacity="0.58"/>
<path opacity="0.4" d="M51.7482 56.9392C51.4243 57.4944 51.1822 58.0965 51.03 58.7257C51.4061 57.0961 52.3739 55.6788 53.7327 54.768L71.82 43.9644C73.3698 43.0385 74.6298 43.7883 74.6298 45.64C74.5764 44.6325 74.2942 43.6521 73.806 42.7787C73.3177 41.9052 72.6373 41.1633 71.82 40.6131L69.5331 39.2439C68.6644 38.7874 67.7039 38.5496 66.7296 38.5496C65.7553 38.5496 64.7948 38.7874 63.9261 39.2439L45.8388 50.0475C44.9774 50.6077 44.2735 51.3924 43.7976 52.323L43.8543 52.2187L51.7482 56.9392Z" fill="white"/>
<path opacity="0.1" d="M53.1531 83.3583L53.0208 83.3974L52.794 83.443H52.5798H52.3593C52.0988 83.4232 51.8494 83.3258 51.6411 83.1627L51.5403 83.0649L51.4836 83.0127L51.408 82.9149L51.345 82.8302L51.282 82.7258L51.2253 82.6215C51.2253 82.6215 51.2253 82.5498 51.1812 82.5107C51.1617 82.4706 51.1449 82.4292 51.1308 82.3868L51.03 82.2825V82.1521C51.03 82.113 51.03 82.0738 51.03 82.0347C51.0265 81.9717 51.0265 81.9086 51.03 81.8456C51.0265 81.811 51.0265 81.776 51.03 81.7413C51.03 81.6435 51.03 81.5392 51.03 81.4284V59.8015C51.0304 59.5677 51.0493 59.3344 51.0867 59.1039C51.0867 59.0191 51.0867 58.9278 51.1371 58.8431V58.7387C51.2814 58.111 51.515 57.509 51.8301 56.9523L43.8543 52.2188L43.7976 52.3231C43.3878 53.0624 43.1304 53.8816 43.0416 54.729C43.0416 54.8463 43.0416 54.9637 43.0416 55.081V76.6883C43.095 77.6959 43.3772 78.6762 43.8654 79.5496C44.3537 80.4231 45.0341 81.165 45.8514 81.7152L48.132 83.0844L48.4218 83.2409L48.5289 83.2866L48.7242 83.3713L48.8754 83.43L49.0392 83.4887L49.2219 83.5408L49.3605 83.58L49.5747 83.6321H49.6818L49.9401 83.6777H49.9905C51.054 83.845 52.1409 83.7352 53.1531 83.3583Z" fill="black"/>
<path d="M66.7233 65.4543C67.9314 62.6614 68.5499 59.634 68.5377 56.5741C69.1279 55.6264 69.624 54.6194 70.0182 53.5684C69.5096 54.1855 68.9371 54.7431 68.3109 55.231C68.9463 54.3118 69.3904 53.2661 69.615 52.16C69.0698 52.9445 68.4352 53.6582 67.725 54.2856C67.4109 54.0437 67.0298 53.9131 66.6382 53.9131C66.2467 53.9131 65.8656 54.0437 65.5515 54.2856C63.6615 55.4331 62.2251 58.7452 62.6598 61.0533C60.1902 62.3573 57.9978 62.0313 56.5362 60.4013C55.755 62.7094 56.133 64.9001 57.456 65.3239C57.0511 65.5755 56.5763 65.6789 56.1078 65.6173C56.1078 67.5733 57.0591 68.7274 58.4892 68.2644C58.1101 68.6551 57.6517 68.9536 57.1473 69.1381C57.5253 70.5399 58.6215 71.0941 59.9256 70.3313C58.9104 72.1995 57.3732 73.7063 55.5156 74.654C56.826 75.0322 58.3884 74.7779 60.0705 73.7738C63.0063 72.02 65.2617 68.8447 66.7044 65.4087" fill="white"/>
<path d="M74.6235 124.317C74.567 123.314 74.2838 122.34 73.7969 121.471C73.31 120.602 72.6328 119.864 71.82 119.316L69.5331 117.947C68.6644 117.49 67.7039 117.252 66.7296 117.252C65.7553 117.252 64.7948 117.49 63.9261 117.947L45.8451 128.75C44.9837 129.311 44.2798 130.095 43.8039 131.026C43.3941 131.765 43.1367 132.584 43.0479 133.432C43.0479 133.549 43.0479 133.666 43.0479 133.784V155.391C43.103 156.392 43.3842 157.366 43.8689 158.235C44.3536 159.103 45.0283 159.842 45.8388 160.392L48.1194 161.761L48.4092 161.911L48.5163 161.963L48.7116 162.048L48.8628 162.107L49.0266 162.165L49.2093 162.218L49.3479 162.257L49.5621 162.309H49.6692L49.9275 162.354H49.9779C51.2729 162.564 52.5985 162.335 53.7579 161.702L71.82 150.958C72.6375 150.406 73.3178 149.663 73.806 148.788C74.2942 147.914 74.5764 146.933 74.6298 145.924L74.6235 124.317Z" fill="#9621B8" fill-opacity="0.58"/>
<path opacity="0.4" d="M51.7482 135.616C51.4331 136.173 51.1995 136.775 51.0552 137.402C51.4251 135.777 52.3834 134.361 53.7327 133.445L71.82 122.641C73.3698 121.715 74.6298 122.465 74.6298 124.317C74.5726 123.314 74.2885 122.339 73.8004 121.47C73.3124 120.601 72.634 119.864 71.82 119.316L69.5331 117.947C68.6644 117.49 67.7039 117.252 66.7296 117.252C65.7553 117.252 64.7948 117.49 63.9261 117.947L45.8451 128.75C44.9837 129.311 44.2798 130.095 43.8039 131.026L43.8606 130.922L51.7482 135.616Z" fill="white"/>
<path opacity="0.1" d="M53.1531 162.035L53.0208 162.074C52.9467 162.098 52.8708 162.115 52.794 162.126H52.5798H52.3593C52.0988 162.107 51.8494 162.009 51.6411 161.846L51.5403 161.748L51.4836 161.696L51.408 161.592L51.345 161.513L51.282 161.409L51.2253 161.305C51.2253 161.266 51.2253 161.233 51.1812 161.194C51.1606 161.152 51.1438 161.109 51.1308 161.064L51.093 160.953L51.0552 160.796C51.0552 160.796 51.0552 160.725 51.0552 160.685C51.0517 160.622 51.0517 160.559 51.0552 160.496C51.0517 160.462 51.0517 160.427 51.0552 160.392C51.0552 160.294 51.0552 160.183 51.0552 160.073V138.478C51.0556 138.245 51.0745 138.011 51.1119 137.781C51.1119 137.689 51.1119 137.605 51.1623 137.52V137.416C51.3066 136.788 51.5402 136.186 51.8553 135.629L43.9614 130.909L43.9047 131.013C43.4949 131.752 43.2375 132.571 43.1487 133.419C43.1487 133.536 43.1487 133.653 43.1487 133.771V155.378C43.1905 156.373 43.4554 157.343 43.9223 158.213C44.3892 159.084 45.0453 159.83 45.8388 160.392L48.1194 161.761L48.4092 161.911L48.5163 161.963L48.7116 162.048L48.8628 162.107L49.0266 162.165L49.2093 162.218L49.3479 162.257L49.5621 162.309H49.6692L49.9275 162.355H49.9779C51.0455 162.524 52.1371 162.414 53.1531 162.035Z" fill="black"/>
<path d="M62.7732 134.312C64.6254 133.204 64.8459 133.086 65.5767 132.695C65.9614 132.456 66.391 132.305 66.8367 132.252C67.1216 132.222 67.4065 132.308 67.6305 132.493C67.8824 132.691 68.0658 132.968 68.1534 133.282C68.3157 133.811 68.3965 134.363 68.3928 134.918C68.4243 135.903 68.4306 136.222 68.4306 138.759C68.4306 141.295 68.4306 141.614 68.3928 142.671C68.3818 143.317 68.3015 143.96 68.1534 144.588C68.0394 145.079 67.8636 145.552 67.6305 145.996C67.4215 146.43 67.1543 146.832 66.8367 147.189C66.4663 147.611 66.0425 147.98 65.5767 148.284C64.8459 148.767 64.6254 148.936 62.7732 150.012C60.921 151.088 60.7068 151.245 59.976 151.636C59.5908 151.872 59.1612 152.021 58.716 152.073C58.4291 152.103 58.1422 152.016 57.9159 151.831C57.6677 151.631 57.4869 151.355 57.3993 151.042C57.2373 150.515 57.1566 149.965 57.1599 149.412C57.1599 148.421 57.1158 148.108 57.1158 145.572C57.1158 143.036 57.1158 142.71 57.1599 141.66C57.1693 141.001 57.2496 140.345 57.3993 139.704C57.515 139.215 57.6885 138.742 57.9159 138.296C58.1302 137.863 58.3993 137.462 58.716 137.103C59.085 136.679 59.509 136.31 59.976 136.007C60.7068 135.525 60.9273 135.355 62.7732 134.279M62.7732 132.558C60.8832 133.68 60.6564 133.862 59.9193 134.319C59.297 134.721 58.731 135.211 58.2372 135.773C57.7367 136.319 57.3126 136.936 56.9772 137.605C56.6259 138.292 56.3572 139.021 56.1771 139.776C55.9811 140.6 55.8733 141.444 55.8558 142.293C55.8558 143.329 55.8117 143.662 55.8117 146.257C55.8117 148.852 55.8117 149.178 55.8558 150.169C55.8559 150.892 55.9643 151.611 56.1771 152.301C56.3167 152.781 56.5961 153.204 56.9772 153.513C57.3346 153.802 57.7865 153.935 58.2372 153.885C58.8301 153.824 59.4036 153.633 59.9193 153.324C60.6564 152.927 60.8895 152.796 62.7732 151.675C64.6569 150.553 64.89 150.371 65.6334 149.908C66.8718 149.115 67.878 147.988 68.544 146.648C68.8944 145.961 69.1611 145.232 69.3378 144.477C69.5363 143.655 69.6462 142.813 69.6654 141.967C69.6654 140.923 69.7032 140.591 69.7032 137.996C69.7032 135.401 69.7032 135.081 69.6654 134.084C69.6646 133.362 69.554 132.645 69.3378 131.958C69.1992 131.478 68.9223 131.052 68.544 130.739C68.1863 130.452 67.734 130.321 67.284 130.374C66.6905 130.432 66.1163 130.623 65.6019 130.935C64.8585 131.326 64.6254 131.456 62.7417 132.584M62.7417 137.233C60.7761 138.407 59.1822 141.556 59.1822 144.268C59.1822 146.98 60.7761 148.226 62.7417 147.052C64.7073 145.879 66.3012 142.729 66.3012 140.017C66.3012 137.305 64.7073 136.059 62.7417 137.233ZM62.7417 145.331C61.4817 146.094 60.4359 145.285 60.4359 143.525C60.4359 141.764 61.4691 139.717 62.7417 138.961C64.0143 138.205 65.0538 139.006 65.0538 140.773C65.0538 142.54 64.0206 144.575 62.7417 145.337M67.2714 134.338C67.2714 133.686 66.8997 133.412 66.4398 133.686C66.1859 133.874 65.9783 134.122 65.8338 134.408C65.6894 134.695 65.6121 135.013 65.6082 135.336C65.6082 135.988 65.9799 136.255 66.4398 135.988C66.6929 135.8 66.8999 135.554 67.0444 135.269C67.1888 134.983 67.2666 134.667 67.2714 134.345" fill="white"/>
<path d="M106.098 74.0085C106.049 73.0037 105.772 72.0251 105.289 71.1518C104.806 70.2785 104.132 69.535 103.32 68.9816L101.033 67.6124C100.163 67.1559 99.2017 66.918 98.2265 66.918C97.2512 66.918 96.2896 67.1559 95.4198 67.6124L77.3388 78.416C76.5742 78.941 75.9286 79.6314 75.4468 80.4396C74.965 81.2478 74.6583 82.1546 74.5479 83.0974C74.5479 83.2147 74.5479 83.3321 74.5479 83.4495V105.057C74.6001 106.064 74.8812 107.044 75.3683 107.917C75.8555 108.791 76.5349 109.533 77.3514 110.084L79.6383 111.453L79.9281 111.609L80.0352 111.655L80.2305 111.74L80.3754 111.798L80.5455 111.857L80.7219 111.909L80.8668 111.948L81.081 112.001H81.1881L81.4464 112.046H81.4968C82.7884 112.265 84.1137 112.048 85.2768 111.427L103.32 100.649C104.137 100.097 104.816 99.3539 105.303 98.4793C105.79 97.6048 106.071 96.6238 106.124 95.6158L106.098 74.0085Z" fill="#9621B8" fill-opacity="0.58"/>
<path opacity="0.4" d="M83.2293 85.3077C82.915 85.8656 82.6795 86.4672 82.53 87.0941C82.9014 85.4677 83.8621 84.051 85.2138 83.1365L103.32 72.3329C104.87 71.407 106.123 72.1568 106.123 74.0085C106.071 73.0014 105.79 72.0213 105.303 71.1478C104.816 70.2743 104.137 69.5321 103.32 68.9816L101.033 67.6124C100.163 67.1559 99.2017 66.918 98.2264 66.918C97.2512 66.918 96.2896 67.1559 95.4198 67.6124L77.3388 78.416C76.4807 78.9783 75.7792 79.7626 75.3039 80.6915L75.3543 80.5872L83.2293 85.3077Z" fill="white"/>
<path opacity="0.1" d="M84.6342 111.727L84.4956 111.766C84.4236 111.789 84.3498 111.807 84.2751 111.818H84.0672H83.79C83.5316 111.797 83.2844 111.7 83.0781 111.538L82.9773 111.44L82.9206 111.388L82.8387 111.283L82.782 111.205C82.7574 111.173 82.7362 111.138 82.719 111.101L82.6623 110.996C82.6623 110.964 82.6623 110.925 82.6119 110.886L82.5678 110.762L82.53 110.644C82.53 110.597 82.5174 110.544 82.4922 110.488C82.4886 110.451 82.4886 110.414 82.4922 110.377C82.4887 110.314 82.4887 110.251 82.4922 110.188C82.4887 110.153 82.4887 110.118 82.4922 110.084C82.4858 109.979 82.4858 109.875 82.4922 109.771V88.1699C82.4957 87.9363 82.5146 87.7032 82.5489 87.4723C82.5489 87.381 82.5489 87.2963 82.593 87.2115C82.5954 87.1768 82.5954 87.1419 82.593 87.1072C82.7425 86.4802 82.978 85.8786 83.2923 85.3207L75.3921 80.6002L75.3417 80.7045C74.9292 81.4426 74.6716 82.2624 74.5857 83.1104C74.5857 83.2278 74.5857 83.3451 74.5857 83.4625V105.07C74.6379 106.077 74.9189 107.057 75.4061 107.93C75.8932 108.804 76.5727 109.546 77.3892 110.097L79.6761 111.466L79.9659 111.622L80.073 111.668L80.2683 111.753L80.4132 111.811L80.5833 111.87L80.7597 111.922L80.9046 111.961L81.1188 112.014H81.2259L81.4842 112.059H81.5346C82.5785 112.211 83.6426 112.097 84.6342 111.727Z" fill="black"/>
<path d="M92.3013 103.877L95.319 102.071V91.6386L97.4232 90.3803L97.6437 86.7551L95.319 88.1439V86.1553C95.319 85.3338 95.4387 84.9361 96.012 84.597L97.6437 83.619V79.9939L95.5584 81.2457C94.5267 81.8085 93.6719 82.6649 93.0948 83.7138C92.5177 84.7627 92.2424 85.9604 92.3013 87.1659V89.976L90.72 90.8953V94.4292L92.2887 93.4968L92.3013 103.877Z" fill="white"/>
<path d="M65.2428 239.936L137.523 283.111C138.372 283.558 139.311 283.791 140.263 283.791C141.216 283.791 142.155 283.558 143.004 283.111L255.723 215.766C257.235 214.86 257.235 213.4 255.723 212.506L183.443 169.305C182.595 168.858 181.657 168.625 180.706 168.625C179.755 168.625 178.817 168.858 177.969 169.305L65.2428 236.676C63.7308 237.563 63.7308 239.023 65.2428 239.936Z" fill="#E0E0E0"/>
<path d="M67.5171 229.504L137.749 271.473C138.608 271.924 139.556 272.158 140.518 272.158C141.48 272.158 142.429 271.924 143.287 271.473L254.64 204.95C256.171 204.037 256.171 202.557 254.64 201.644L184.401 159.675C183.543 159.225 182.594 158.99 181.632 158.99C180.67 158.99 179.721 159.225 178.863 159.675L67.5171 226.244C65.9862 227.124 65.9862 228.604 67.5171 229.504Z" fill="#37474F"/>
<path d="M137.749 271.486L67.5171 229.504C66.15 228.689 66.0051 227.418 67.0824 226.505C66.3978 227.067 65.8357 227.772 65.4329 228.574C65.0301 229.376 64.7957 230.258 64.7451 231.16V233.853C64.7975 234.848 65.0758 235.817 65.5574 236.68C66.039 237.543 66.7104 238.277 67.5171 238.821L137.749 280.784C138.602 281.253 139.556 281.488 140.521 281.468V272.171C139.556 272.191 138.602 271.955 137.749 271.486Z" fill="#455A64"/>
<path d="M254.64 214.26C255.445 213.717 256.116 212.984 256.596 212.122C257.077 211.26 257.354 210.293 257.405 209.299V206.606C257.355 205.703 257.121 204.822 256.718 204.019C256.315 203.217 255.753 202.512 255.068 201.951C256.145 202.863 256.007 204.135 254.64 204.95L143.287 271.486C142.436 271.954 141.485 272.19 140.522 272.171V281.482C141.485 281.5 142.436 281.265 143.287 280.797L254.64 214.26Z" fill="#263238"/>
<path d="M105.21 248.888C106.402 249.515 107.719 249.842 109.056 249.842C110.393 249.842 111.711 249.515 112.902 248.888C115.025 247.584 115.025 245.563 112.902 244.291C111.71 243.668 110.392 243.343 109.056 243.343C107.72 243.343 106.403 243.668 105.21 244.291C103.112 245.563 103.112 247.623 105.21 248.888Z" fill="#263238"/>
<path d="M148.68 262.58L81.4527 222.384C80.5392 221.837 80.5392 220.943 81.4527 220.396L169.023 168.053C169.537 167.783 170.106 167.643 170.683 167.643C171.26 167.643 171.828 167.783 172.343 168.053L239.57 208.249C240.49 208.797 240.49 209.683 239.57 210.205L152 262.554C151.488 262.828 150.92 262.973 150.343 262.977C149.766 262.982 149.197 262.846 148.68 262.58Z" fill="white"/>
<path d="M214.439 183.61C214.741 183.767 215.075 183.85 215.413 183.85C215.751 183.85 216.084 183.767 216.386 183.61C216.491 183.556 216.579 183.472 216.641 183.369C216.702 183.266 216.735 183.147 216.735 183.026C216.735 182.905 216.702 182.786 216.641 182.683C216.579 182.58 216.491 182.497 216.386 182.443C216.084 182.285 215.751 182.203 215.413 182.203C215.075 182.203 214.741 182.285 214.439 182.443C213.898 182.762 213.898 183.284 214.439 183.61Z" fill="#263238"/>
<path d="M217.552 192.751C218.155 193.066 218.822 193.23 219.498 193.23C220.175 193.23 220.841 193.066 221.445 192.751C222.522 192.099 222.522 191.062 221.445 190.423C220.842 190.105 220.175 189.939 219.498 189.939C218.822 189.939 218.154 190.105 217.552 190.423C216.474 191.036 216.474 192.105 217.552 192.751Z" fill="#263238"/>
<path d="M214.83 188.695C215.548 188.272 215.51 187.554 214.742 187.098L201.928 179.437C201.516 179.211 201.058 179.088 200.592 179.079C200.125 179.07 199.664 179.175 199.244 179.385C198.526 179.815 198.563 180.532 199.332 180.989L212.146 188.65C212.559 188.875 213.017 188.997 213.483 189.005C213.949 189.013 214.411 188.907 214.83 188.695Z" fill="#263238"/>
<path d="M167.889 178.863C166.969 179.411 166.969 180.298 167.889 180.819L219.108 211.431C219.623 211.7 220.193 211.841 220.771 211.841C221.349 211.841 221.918 211.7 222.434 211.431L233.774 204.669L179.229 172.069L167.889 178.863Z" fill="#EBEBEB"/>
<path d="M168.267 184.177L164.178 181.739C164.007 181.649 163.818 181.602 163.627 181.602C163.435 181.602 163.246 181.649 163.075 181.739L160.499 183.277C160.19 183.46 160.19 183.753 160.499 183.929L160.852 184.144L159.547 184.862C159.396 184.946 159.409 184.999 159.585 184.986L161.878 184.757L164.587 186.374C164.76 186.462 164.95 186.507 165.142 186.507C165.334 186.507 165.524 186.462 165.696 186.374L168.267 184.836C168.331 184.81 168.387 184.765 168.426 184.706C168.465 184.648 168.486 184.578 168.486 184.506C168.486 184.435 168.465 184.365 168.426 184.306C168.387 184.247 168.331 184.202 168.267 184.177Z" fill="#EBEBEB"/>
<path d="M169.47 190.541L169.168 189.889C168.777 189.034 168.538 187.874 169.672 187.202C170.101 186.977 170.576 186.86 171.058 186.86C171.539 186.86 172.014 186.977 172.444 187.202C173.036 187.554 173.168 188.083 172.84 188.506C173.576 188.298 174.36 188.382 175.039 188.741C175.208 188.798 175.354 188.908 175.458 189.056C175.562 189.204 175.618 189.383 175.618 189.566C175.618 189.749 175.562 189.927 175.458 190.076C175.354 190.224 175.208 190.334 175.039 190.391C173.93 191.043 171.99 190.925 170.56 190.697L169.47 190.541Z" fill="#EBEBEB"/>
<path d="M113.337 213.439L164.562 244.05C165.078 244.32 165.648 244.461 166.226 244.461C166.803 244.461 167.373 244.32 167.889 244.05L207.78 220.207C208.694 219.659 208.694 218.772 207.78 218.251L156.555 187.613C156.039 187.343 155.47 187.203 154.892 187.203C154.314 187.203 153.744 187.343 153.229 187.613L113.337 211.457C112.417 212.004 112.417 212.891 113.337 213.439Z" fill="#EBEBEB"/>
<path d="M113.728 216.771L109.62 214.326C109.447 214.238 109.258 214.193 109.066 214.193C108.873 214.193 108.684 214.238 108.511 214.326L105.935 215.864C105.872 215.891 105.818 215.936 105.781 215.994C105.743 216.052 105.723 216.12 105.723 216.19C105.723 216.26 105.743 216.329 105.781 216.387C105.818 216.445 105.872 216.49 105.935 216.516L106.294 216.731L104.99 217.442C104.832 217.527 104.851 217.586 104.99 217.566L107.283 217.344L109.992 218.961C110.164 219.049 110.354 219.094 110.546 219.094C110.738 219.094 110.928 219.049 111.101 218.961L113.677 217.416C113.743 217.397 113.801 217.357 113.844 217.303C113.887 217.248 113.913 217.182 113.919 217.111C113.924 217.041 113.909 216.971 113.875 216.91C113.841 216.849 113.789 216.8 113.728 216.771Z" fill="#EBEBEB"/>
<path d="M114.899 223.127L114.603 222.475C114.206 221.621 113.973 220.461 115.107 219.783C115.536 219.558 116.01 219.44 116.49 219.44C116.971 219.44 117.444 219.558 117.873 219.783C118.503 220.141 118.604 220.669 118.27 221.087C119.008 220.886 119.792 220.969 120.475 221.321C120.642 221.38 120.788 221.491 120.891 221.64C120.994 221.788 121.05 221.967 121.05 222.149C121.05 222.332 120.994 222.511 120.891 222.659C120.788 222.808 120.642 222.919 120.475 222.977C119.366 223.629 117.426 223.512 115.989 223.284L114.899 223.127Z" fill="#EBEBEB"/>
<path d="M98.6895 220.206C99.2051 219.937 99.7749 219.796 100.353 219.796C100.931 219.796 101.5 219.937 102.016 220.206L153.235 250.811C154.155 251.359 154.155 252.252 153.235 252.8L142.783 259.046L88.2504 226.446L98.6895 220.206Z" fill="#EBEBEB"/>
<path d="M155.61 213.158L126.454 221.263L164.575 244.044C165.091 244.314 165.66 244.454 166.238 244.454C166.816 244.454 167.386 244.314 167.901 244.044L168.727 243.548L185.176 218.57L150.242 225.664L155.61 213.158Z" fill="#E0E0E0"/>
<path d="M169.968 195.633L156.555 187.613C156.039 187.343 155.47 187.203 154.892 187.203C154.314 187.203 153.744 187.343 153.229 187.613L138.235 196.578C138.921 197.928 140.339 199.186 142.487 200.275C148.787 203.392 159.043 203.392 165.362 200.275C168.008 198.971 169.539 197.328 169.968 195.633Z" fill="#E0E0E0"/>
<path opacity="0.2" d="M234.65 192.81L167.416 152.62C166.902 152.35 166.333 152.21 165.756 152.21C165.179 152.21 164.611 152.35 164.096 152.62L76.5261 204.963C75.6126 205.51 75.6126 206.397 76.5261 206.919L90.7389 215.395L143.779 247.102C144.293 247.371 144.862 247.512 145.439 247.512C146.015 247.512 146.584 247.371 147.099 247.102L225.924 199.968L234.643 194.752C235.57 194.25 235.57 193.357 234.65 192.81Z" fill="white"/>
<path d="M234.814 192.523L179.222 159.271L167.58 152.333C167.016 152.035 166.392 151.879 165.759 151.879C165.126 151.879 164.502 152.035 163.939 152.333L76.3686 204.676C76.119 204.775 75.9044 204.951 75.753 205.179C75.6016 205.407 75.5206 205.677 75.5206 205.954C75.5206 206.231 75.6016 206.501 75.753 206.729C75.9044 206.957 76.119 207.132 76.3686 207.232L90.5814 215.708L143.64 247.434C144.203 247.734 144.827 247.89 145.461 247.89C146.094 247.89 146.718 247.734 147.281 247.434L226.101 200.301L234.826 195.085C235.075 194.984 235.289 194.808 235.44 194.579C235.591 194.351 235.671 194.081 235.671 193.804C235.671 193.527 235.591 193.257 235.44 193.028C235.289 192.8 235.075 192.623 234.826 192.523H234.814ZM234.492 194.511L225.767 199.727L146.947 246.86C146.481 247.101 145.966 247.227 145.445 247.227C144.923 247.227 144.409 247.101 143.942 246.86L90.9027 215.16L76.6962 206.684C76.5444 206.644 76.4099 206.552 76.3138 206.424C76.2178 206.296 76.1656 206.139 76.1656 205.977C76.1656 205.815 76.2178 205.657 76.3138 205.529C76.4099 205.401 76.5444 205.309 76.6962 205.269L164.266 152.927C164.733 152.687 165.247 152.562 165.769 152.562C166.29 152.562 166.804 152.687 167.271 152.927L178.92 159.87L234.511 193.122C234.663 193.163 234.798 193.254 234.894 193.382C234.99 193.51 235.042 193.668 235.042 193.83C235.042 193.992 234.99 194.15 234.894 194.278C234.798 194.406 234.663 194.497 234.511 194.537L234.492 194.511Z" fill="white"/>
<path d="M204.479 29.8225C205.405 29.2683 206.161 29.7181 206.161 30.8265V159.003C206.129 159.608 205.96 160.196 205.667 160.72C205.375 161.244 204.968 161.69 204.479 162.022L156.145 190.906L150.475 210.466C149.965 212.239 148.945 212.317 148.201 210.629L143.01 198.769L128.898 207.199C127.972 207.753 127.216 207.303 127.216 206.195V78.0183C127.247 77.4137 127.416 76.8254 127.708 76.3009C128.001 75.7764 128.408 75.3306 128.898 74.9995L204.479 29.8225Z" fill="#9621B8" fill-opacity="0.59"/>
<path d="M198.305 128.77C198.247 129.6 198.001 130.404 197.586 131.117C197.171 131.829 196.599 132.43 195.917 132.871L169.363 148.741C168.046 149.523 166.975 148.969 166.975 147.489C167.035 146.659 167.282 145.856 167.697 145.144C168.112 144.431 168.682 143.83 169.363 143.388L195.93 127.525C197.24 126.736 198.305 127.296 198.305 128.77Z" fill="white"/>
<path d="M193.41 144.62C193.351 145.45 193.104 146.253 192.689 146.965C192.274 147.678 191.703 148.279 191.022 148.721L168.966 161.918C167.649 162.707 166.585 162.146 166.585 160.666C166.643 159.838 166.888 159.035 167.302 158.324C167.716 157.612 168.286 157.012 168.966 156.571L191.047 143.375C192.364 142.586 193.41 143.147 193.41 144.62Z" fill="white"/>
<path d="M153.625 167.166L153.569 166.397C152.365 169.54 150.551 171.795 148.529 173.002C144.957 175.14 141.763 173.243 141.763 167.584C141.763 162.25 144.283 156.402 148.207 154.074C150.784 152.535 152.542 153.67 152.832 154.341V153.037C152.832 152.314 153.544 151.303 154.413 150.781C155.282 150.26 156.001 150.736 156.001 151.851V163.945C156.001 165.484 156.555 165.797 157.342 165.321C158.779 164.467 160.102 160.809 160.102 156.643C160.102 148.597 156.026 144.848 149.524 148.734C143.432 152.372 138.6 161.566 138.6 169.598C138.6 177.481 143.167 180.487 149.146 176.92C150.863 175.816 152.385 174.416 153.644 172.78C154.325 171.919 155.068 171.659 155.396 172.271C155.723 172.884 155.522 174.149 154.848 175.01C153.254 177.08 151.337 178.86 149.178 180.278C141.737 184.718 136.111 180.845 136.111 171.104C136.111 161.155 142.002 149.999 149.556 145.481C157.109 140.962 162.647 144.979 162.647 155.046C162.647 161.148 160.335 166.495 157.053 168.451C155.238 169.481 153.947 169.24 153.625 167.166ZM145.19 165.334C145.19 168.451 146.651 170.159 148.882 168.829C151.112 167.499 152.662 164.082 152.662 160.933C152.662 157.901 151.168 156.369 148.85 157.751C146.651 159.042 145.19 162.348 145.19 165.334Z" fill="white"/>
<path d="M166.673 71.068C179.72 63.244 190.291 69.5944 190.291 85.1838C190.291 100.773 179.72 119.74 166.673 127.525C153.626 135.31 143.054 128.998 143.054 113.409C143.054 97.8195 153.626 78.892 166.673 71.068Z" fill="white"/>
<path d="M166.673 71.068C179.72 63.244 190.291 69.5944 190.291 85.1838C190.291 100.773 179.72 119.74 166.673 127.525C153.626 135.31 143.054 128.998 143.054 113.409C143.054 97.8195 153.626 78.892 166.673 71.068Z" fill="#F5F5F5"/>
<mask id="mask0_58_72" style="mask-type:luminance" maskUnits="userSpaceOnUse" x="143" y="67" width="48" height="64">
<path d="M166.673 71.068C179.72 63.244 190.291 69.5944 190.291 85.1838C190.291 100.773 179.72 119.74 166.673 127.525C153.626 135.31 143.054 128.998 143.054 113.409C143.054 97.8195 153.626 78.892 166.673 71.068Z" fill="white"/>
</mask>
<g mask="url(#mask0_58_72)">
<path d="M158.061 91.769C156.978 91.9626 156.011 92.5847 155.364 93.5034C154.205 95.0486 154.444 97.2524 155.364 102.214L158.949 101.647L158.061 91.769Z" fill="#263238"/>
<path d="M178.951 84.4666C179.757 84.244 180.516 83.873 181.194 83.3713C182.297 82.4128 182.58 83.6321 181.975 84.923C181.574 85.8433 181.001 86.6721 180.288 87.3615C179.576 88.0509 178.738 88.5872 177.824 88.9393C177.786 88.7829 176.791 86.3313 176.791 86.3313L178.951 84.4666Z" fill="#263238"/>
<path d="M160.121 117.36C160.121 117.36 153.443 121.82 151.994 123.391C150.545 124.962 149.946 129.859 149.411 135.851C149.411 135.851 157.015 139.169 168.941 133.06C180.867 126.951 181.944 122.12 181.944 122.12C181.944 122.12 180.4 114.863 179.827 112.848C179.103 110.299 177.704 108.46 169.571 112.281L160.121 117.36Z" fill="#263238"/>
<path d="M159.743 101.432C159.207 101.908 158.451 101.06 157.796 100.532C157.141 100.004 154.999 99.6256 153.928 102.253C152.857 104.881 155.314 107.397 156.763 108.043C157.259 108.259 157.804 108.321 158.333 108.221C158.862 108.121 159.352 107.865 159.743 107.482L160.121 117.36C160.121 117.36 162.011 120.744 167.177 120.04C172.343 119.336 171.266 113.963 169.577 112.281V110.247C169.577 110.247 172.242 110.064 173.496 109.373C174.17 109.001 175.77 106.55 176.803 104.02C178.934 99.3601 179.42 94.075 178.177 89.0828C176.331 81.4674 167.895 83.5603 162.868 88.2286C157.84 92.897 159.743 101.432 159.743 101.432Z" fill="#FFA8A7"/>
<path d="M180.407 76.8251C179.953 75.2864 179.676 75.5603 176.028 78.2139C173.242 80.2439 170.133 81.7513 166.843 82.6671C164.272 83.4755 160.757 84.1145 158.949 86.5791C158.171 87.639 157.775 88.9462 157.828 90.2759C157.674 90.1288 157.488 90.0235 157.286 89.9695C156.397 89.7217 155.308 90.3933 154.848 91.4756L157.998 92.3427C157.752 94.2205 157.046 100.017 157.815 100.525C158.476 100.962 159.491 102.429 159.762 102.351C160.663 102.084 161.022 97.9499 161.513 95.4463C162.049 92.597 162.256 91.5343 163.246 91.4169C166.458 90.8928 169.62 90.079 172.696 88.9849C176.098 87.6092 177.074 86.4421 177.074 86.4421L178.889 85.249C179.698 84.0336 180.252 82.6555 180.514 81.2042C180.775 79.7529 180.739 78.2609 180.407 76.8251Z" fill="#263238"/>
<path d="M169.564 110.247C169.564 110.247 164.795 110.579 163.132 110.123C162.174 109.887 161.345 109.268 160.826 108.401C161.062 109.308 161.512 110.139 162.137 110.82C163.353 112.124 169.564 111.564 169.564 111.564V110.247Z" fill="#F28F8F"/>
<path d="M168.349 104.516L170.528 104.757C170.439 105.091 170.245 105.386 169.978 105.596C169.71 105.806 169.383 105.919 169.048 105.917C168.443 105.852 168.134 105.226 168.349 104.516Z" fill="#F28F8F"/>
<path d="M171.499 95.7136L171.814 101.575L174.819 99.6908L171.499 95.7136Z" fill="#F28F8F"/>
<path d="M168.418 97.8C168.412 98.0933 168.317 98.3771 168.146 98.6112C167.975 98.8453 167.737 99.0177 167.467 99.104C167.353 99.1442 167.232 99.1547 167.114 99.1346C166.996 99.1145 166.885 99.0645 166.79 98.9889C166.695 98.9134 166.62 98.8146 166.571 98.7016C166.522 98.5886 166.5 98.4648 166.509 98.3412C166.516 98.0474 166.613 97.7634 166.785 97.5294C166.956 97.2954 167.195 97.1232 167.467 97.0372C167.58 96.9966 167.7 96.9859 167.818 97.0059C167.936 97.0259 168.048 97.0761 168.142 97.1518C168.236 97.2276 168.311 97.3265 168.359 97.4397C168.408 97.5529 168.428 97.6768 168.418 97.8Z" fill="#263238"/>
<path d="M167.404 94.3379L165.362 96.0722C165.23 95.7579 165.206 95.4063 165.293 95.0755C165.38 94.7448 165.573 94.4547 165.841 94.2531C165.942 94.138 166.066 94.0476 166.204 93.9884C166.343 93.9291 166.492 93.9026 166.642 93.9107C166.792 93.9189 166.938 93.9614 167.069 94.0353C167.201 94.1092 167.315 94.2126 167.404 94.3379Z" fill="#263238"/>
<path d="M176.942 92.5122L175.052 91.5473C175.194 91.2455 175.437 91.0072 175.736 90.8766C176.035 90.7459 176.369 90.7317 176.677 90.8366C176.806 90.9243 176.916 91.0387 177 91.1726C177.084 91.3065 177.14 91.4569 177.165 91.6144C177.189 91.7718 177.182 91.9329 177.144 92.0875C177.106 92.242 177.037 92.3866 176.942 92.5122Z" fill="#263238"/>
<path d="M176.4 95.3028C176.392 95.5956 176.296 95.8785 176.126 96.1122C175.955 96.3459 175.719 96.5188 175.449 96.6068C175.335 96.647 175.214 96.6575 175.096 96.6374C174.978 96.6173 174.867 96.5673 174.772 96.4917C174.677 96.4162 174.602 96.3174 174.553 96.2044C174.504 96.0914 174.483 95.9676 174.491 95.844C174.498 95.5502 174.595 95.2662 174.767 95.0322C174.939 94.7982 175.177 94.626 175.449 94.54C175.562 94.4994 175.683 94.4887 175.8 94.5087C175.918 94.5287 176.03 94.5789 176.124 94.6546C176.219 94.7304 176.293 94.8293 176.341 94.9425C176.39 95.0557 176.41 95.1796 176.4 95.3028Z" fill="#263238"/>
</g>
</svg>
