<svg width="104" height="183" viewBox="0 0 104 183" fill="none" xmlns="http://www.w3.org/2000/svg">
<g opacity="0.3">
<path d="M17.4635 118.51H1V182.307L2.43856 179.533L3.89488 182.337H4.02808L5.4844 179.533L6.94072 182.337H7.06504L8.52136 179.533L9.97768 182.337H10.1109L11.5672 179.533L13.0235 182.337H13.1478L14.6042 179.533L16.0605 182.337H16.1937L17.6411 179.533L19.0974 182.337H19.2306L20.687 179.533L22.1433 182.337H22.2676L23.7239 179.533L25.1802 182.337H25.3134L26.7698 179.533L28.2261 182.337H28.3504L29.8067 179.533L31.263 182.337H31.3962L32.8526 179.533L34.3089 182.337H34.4332L35.8895 179.533L37.3458 182.337H37.4524V118.51H21.575" stroke="black" stroke-linecap="round" stroke-linejoin="round"/>
<path d="M5.69751 132.137H32.7815" stroke="black" stroke-linecap="round" stroke-linejoin="round"/>
<path d="M5.69751 139.702H32.7815" stroke="black" stroke-linecap="round" stroke-linejoin="round"/>
<path d="M5.69751 147.267H32.7815" stroke="black" stroke-linecap="round" stroke-linejoin="round"/>
<path d="M5.69751 154.832H32.7815" stroke="black" stroke-linecap="round" stroke-linejoin="round"/>
<path d="M29.2827 168.196H32.7814" stroke="black" stroke-linecap="round" stroke-linejoin="round"/>
<path d="M5.69751 168.196H25.6864" stroke="black" stroke-linecap="round" stroke-linejoin="round"/>
</g>
<g opacity="0.3">
<path d="M89 161.122C96.732 161.122 103 154.89 103 147.202C103 139.515 96.732 133.283 89 133.283C81.268 133.283 75 139.515 75 147.202C75 154.89 81.268 161.122 89 161.122Z" stroke="black" stroke-linecap="round" stroke-linejoin="round"/>
<path d="M89 157.854C94.9167 157.854 99.7131 153.085 99.7131 147.203C99.7131 141.32 94.9167 136.551 89 136.551C83.0834 136.551 78.287 141.32 78.287 147.203C78.287 153.085 83.0834 157.854 89 157.854Z" stroke="black" stroke-linecap="round" stroke-linejoin="round"/>
<path d="M88.0666 141.13V140.192H89.6898V141.13C91.0999 141.413 91.8202 142.492 91.8202 144.156V144.56H89.984V144.076C89.984 143.178 89.6188 142.835 88.9695 142.835C88.3202 142.835 87.955 143.178 87.955 144.076C87.955 146.658 91.8405 146.789 91.8405 150.38C91.8405 152.084 91.0999 153.184 89.6898 153.466V154.384H88.0666V153.466C86.6362 153.153 85.926 152.084 85.926 150.38V149.522H87.8028V150.531C87.8028 151.429 88.1985 151.751 88.8173 151.751C89.4362 151.751 89.8318 151.429 89.8318 150.531C89.8318 147.939 85.9463 147.818 85.9463 144.217C85.926 142.512 86.6768 141.433 88.0666 141.13Z" fill="#5434B4"/>
</g>
<g opacity="0.3">
<path d="M48.6781 7.27765L60.9414 19.6638L30.5865 55.6743L22.0038 47.0115" stroke="black" stroke-linecap="round" stroke-linejoin="round"/>
<path d="M47.2718 31.1274L30.7516 50.5274L25.36 45.1283" stroke="black" stroke-linecap="round" stroke-linejoin="round"/>
<path d="M52.6348 16.865L55.9875 20.2756L54.8668 21.6037" stroke="black" stroke-linecap="round" stroke-linejoin="round"/>
<path d="M21.0195 18.8851L45.4018 3.6556L55.3506 23.9992L16.8045 48.0699L6.85571 27.7263L18.2916 20.5861" stroke="black" stroke-linecap="round" stroke-linejoin="round"/>
<path d="M11.4622 29.0315L18.351 43.2185L50.7499 22.7053L43.8611 8.5183L11.4622 29.0315Z" stroke="black" stroke-linecap="round" stroke-linejoin="round"/>
<path d="M29.5343 22.6375C32.0736 21.0512 34.8033 21.2192 35.7104 22.9906C36.6174 24.7619 35.2202 27.4993 32.6808 29.0857C30.1415 30.6721 27.4137 30.5134 26.4979 28.7447C25.5822 26.976 26.9824 24.2077 29.5343 22.6375Z" stroke="black" stroke-linecap="round" stroke-linejoin="round"/>
</g>
</svg>
