<svg width="138" height="141" viewBox="0 0 138 141" fill="none" xmlns="http://www.w3.org/2000/svg">
<g opacity="0.3">
<path d="M82.5692 88.7169C89.1288 88.7169 94.4465 83.2463 94.4465 76.498C94.4465 69.7498 89.1288 64.2792 82.5692 64.2792C76.0095 64.2792 70.6919 69.7498 70.6919 76.498C70.6919 83.2463 76.0095 88.7169 82.5692 88.7169Z" stroke="black" stroke-linecap="round" stroke-linejoin="round"/>
<path d="M82.5692 85.8483C87.5888 85.8483 91.6579 81.6621 91.6579 76.4982C91.6579 71.3343 87.5888 67.1481 82.5692 67.1481C77.5497 67.1481 73.4805 71.3343 73.4805 76.4982C73.4805 81.6621 77.5497 85.8483 82.5692 85.8483Z" stroke="black" stroke-linecap="round" stroke-linejoin="round"/>
<path d="M81.7774 71.1676V70.3441H83.1545V71.1676C84.3508 71.4155 84.9619 72.3629 84.9619 73.8238V74.178H83.4041V73.753C83.4041 72.965 83.0942 72.6639 82.5434 72.6639C81.9926 72.6639 81.6827 72.965 81.6827 73.753C81.6827 76.0197 84.9791 76.1348 84.9791 79.2869C84.9791 80.7833 84.3508 81.7484 83.1545 81.9963V82.802H81.7774V81.9963C80.5639 81.7218 79.9614 80.7833 79.9614 79.2869V78.5343H81.5536V79.4197C81.5536 80.2077 81.8893 80.4911 82.4143 80.4911C82.9393 80.4911 83.275 80.2077 83.275 79.4197C83.275 77.1442 79.9786 77.0379 79.9786 73.877C79.9614 72.3806 80.5983 71.4332 81.7774 71.1676Z" fill="#5434B4"/>
</g>
<g opacity="0.3">
<path d="M59.4694 125.852V138.47C59.4694 138.751 59.3606 139.022 59.1669 139.221C58.9732 139.42 58.7105 139.532 58.4366 139.532H-0.958463C-1.09441 139.533 -1.22923 139.507 -1.35505 139.454C-1.48088 139.401 -1.59519 139.322 -1.69133 139.223C-1.78746 139.125 -1.8635 139.007 -1.91499 138.878C-1.96649 138.748 -1.99241 138.609 -1.99127 138.47V101.282C-1.99707 101.138 -1.97465 100.996 -1.92535 100.861C-1.87606 100.727 -1.8009 100.605 -1.70441 100.502C-1.60792 100.398 -1.4921 100.316 -1.3639 100.26C-1.2357 100.204 -1.09779 100.175 -0.958463 100.175H58.428C58.7019 100.175 58.9646 100.287 59.1583 100.486C59.3519 100.685 59.4608 100.956 59.4608 101.237V122.39" stroke="black" stroke-linecap="round" stroke-linejoin="round"/>
<path d="M11.6417 110.313H59.4692V118.813H-2V110.313H7.38133" stroke="black" stroke-linecap="round" stroke-linejoin="round"/>
<path d="M34.1569 125.188H6.2625V135.282H34.1569V125.188Z" stroke="black" stroke-linecap="round" stroke-linejoin="round"/>
<path d="M46.5507 124.657H37.2554V135.282H46.5507V124.657Z" stroke="black" stroke-linecap="round" stroke-linejoin="round"/>
</g>
<g opacity="0.3">
<path d="M125.215 91.7083C131.775 91.7083 137.092 86.2378 137.092 79.4895C137.092 72.7412 131.775 67.2706 125.215 67.2706C118.656 67.2706 113.338 72.7412 113.338 79.4895C113.338 86.2378 118.656 91.7083 125.215 91.7083Z" stroke="black" stroke-linecap="round" stroke-linejoin="round"/>
<path d="M125.215 88.8397C130.235 88.8397 134.304 84.6536 134.304 79.4897C134.304 74.3258 130.235 70.1396 125.215 70.1396C120.196 70.1396 116.127 74.3258 116.127 79.4897C116.127 84.6536 120.196 88.8397 125.215 88.8397Z" stroke="black" stroke-linecap="round" stroke-linejoin="round"/>
<path d="M124.415 74.1591V73.3445H125.792V74.1591C126.988 74.4159 127.599 75.3633 127.599 76.8154V77.1607H126.007V76.7003C126.007 75.9123 125.706 75.6112 125.146 75.6112C124.587 75.6112 124.286 75.9123 124.286 76.7003C124.286 78.9758 127.582 79.0821 127.582 82.2342C127.582 83.7306 126.954 84.6957 125.757 84.9525V85.7493H124.38V84.9525C123.167 84.6957 122.556 83.7306 122.556 82.2342V81.4816H124.148V82.367C124.148 83.155 124.492 83.4384 125.009 83.4384C125.525 83.4384 125.869 83.155 125.869 82.367C125.869 80.0915 122.582 79.9852 122.582 76.8331C122.642 75.3722 123.236 74.4248 124.415 74.1591Z" fill="#5434B4"/>
</g>
<g opacity="0.3">
<path d="M80.6982 39.2519L71.6611 25.1382L106.57 1.46198L112.896 11.3345" stroke="black" stroke-linecap="round" stroke-linejoin="round"/>
<path d="M86.5851 18.9048L105.658 5.96875L109.651 12.2021" stroke="black" stroke-linecap="round" stroke-linejoin="round"/>
<path d="M78.4948 29.8752L76.0505 26.0502L77.3243 25.1913" stroke="black" stroke-linecap="round" stroke-linejoin="round"/>
<path d="M108.644 35.9227L83.0995 42.9884L77.703 22.3492L118.086 11.184L123.482 31.8232L111.502 35.1347" stroke="black" stroke-linecap="round" stroke-linejoin="round"/>
<path d="M119.595 29.5337L115.841 15.1595L81.5872 24.628L85.3415 39.0022L119.595 29.5337Z" stroke="black" stroke-linecap="round" stroke-linejoin="round"/>
<path d="M101.44 30.3532C98.781 31.0881 96.2764 30.2204 95.7686 28.4141C95.2608 26.6079 97.0768 24.5537 99.7363 23.8188C102.396 23.0839 104.9 23.9427 105.417 25.749C105.933 27.5553 104.109 29.636 101.44 30.3532Z" stroke="black" stroke-linecap="round" stroke-linejoin="round"/>
</g>
</svg>
