<svg width="60" height="54" viewBox="0 0 60 54" fill="none" xmlns="http://www.w3.org/2000/svg">
<path fill-rule="evenodd" clip-rule="evenodd" d="M51.2584 7.71386C48.4848 5.25881 45.1898 3.31337 41.563 1.98952C37.9362 0.665672 34.0492 -0.0104348 30.1258 0.000121737C13.6607 0.000121737 0.257142 11.7994 0.250446 26.305C0.243162 30.9239 1.61932 35.4621 4.23883 39.4575L0 53.0839L15.837 49.4261C20.2208 51.5272 25.1281 52.6269 30.1138 52.6253H30.1258C46.5897 52.6253 59.9919 40.8249 59.9999 26.3204C60.0099 22.8612 59.2422 19.4347 57.7415 16.2404C56.2407 13.046 54.037 10.1477 51.2584 7.71386ZM30.1258 48.1855H30.1151C25.6706 48.1867 21.3068 47.1343 17.4777 45.1379L16.571 44.664L7.1732 46.8347L9.68168 38.7667L9.09106 37.9372C6.60586 34.4562 5.28916 30.4223 5.29419 26.305C5.29419 14.251 16.4384 4.44352 30.1352 4.44352C36.7057 4.43314 43.0118 6.7322 47.6666 10.835C52.3213 14.9379 54.9434 20.5085 54.9562 26.3216C54.9508 38.3768 43.812 48.1855 30.1258 48.1855ZM43.745 31.8113C42.999 31.4819 39.3254 29.8917 38.645 29.6725C37.9647 29.4533 37.4624 29.3431 36.9656 30.0019C36.4687 30.6607 35.037 32.1348 34.6017 32.5791C34.1665 33.0234 33.7312 33.072 32.9852 32.7426C32.2392 32.4132 29.8325 31.72 26.9812 29.4806C24.762 27.7376 23.2647 25.5858 22.8294 24.9282C22.3942 24.2705 22.7826 23.9139 23.1562 23.5869C23.4924 23.2918 23.9022 22.819 24.2759 22.4351C24.6495 22.0512 24.7741 21.7763 25.0218 21.3379C25.2696 20.8995 25.1464 20.5156 24.9602 20.1874C24.7741 19.8591 23.2808 16.6232 22.6593 15.3067C22.0526 14.0247 21.4379 14.1988 20.9799 14.1787C20.5446 14.1597 20.0424 14.155 19.5482 14.155C19.1704 14.1637 18.7987 14.2412 18.4562 14.3827C18.1138 14.5242 17.8081 14.7266 17.558 14.9773C16.8736 15.6361 14.9451 17.2286 14.9451 20.4611C14.9451 23.6935 17.6236 26.8216 17.9933 27.2601C18.3629 27.6985 23.2567 34.3375 30.7446 37.1848C32.135 37.7116 33.5557 38.1736 35.0008 38.5688C36.7888 39.0688 38.416 38.9989 39.7017 38.8295C41.1361 38.6411 44.1214 37.2393 44.7414 35.7037C45.3615 34.1681 45.3629 32.8528 45.1767 32.5791C44.9906 32.3054 44.4923 32.1395 43.745 31.8113Z" fill="#F7F3F3"/>
</svg>
